<?xml version="1.0" encoding="UTF-8" standalone="no"?>
<!DOCTYPE svg PUBLIC "-//W3C//DTD SVG 1.1//EN"
 "http://www.w3.org/Graphics/SVG/1.1/DTD/svg11.dtd">
<!-- Generated by graphviz version 2.40.1 (20161225.0304)
 -->
<!-- Title: cloud Pages: 1 -->
<svg width="663pt" height="203pt"
 viewBox="0.00 0.00 662.79 203.00" xmlns="http://www.w3.org/2000/svg" xmlns:xlink="http://www.w3.org/1999/xlink">
<g id="graph0" class="graph" transform="scale(1 1) rotate(0) translate(4 199)">
<title>cloud</title>
<polygon fill="#ffffff" stroke="transparent" points="-4,4 -4,-199 658.7908,-199 658.7908,4 -4,4"/>
<!-- avlink -->
<g id="node1" class="node">
<title>avlink</title>
<ellipse fill="none" stroke="#000000" cx="44.9927" cy="-104" rx="44.9855" ry="18"/>
<text text-anchor="middle" x="44.9927" y="-99.8" font-family="Times,serif" font-size="14.00" fill="#000000">AV&#45;LINK</text>
</g>
<!-- IPC_1 -->
<g id="node2" class="node">
<title>IPC_1</title>
<ellipse fill="none" stroke="#000000" cx="441.9927" cy="-177" rx="27" ry="18"/>
<text text-anchor="middle" x="441.9927" y="-172.8" font-family="Times,serif" font-size="14.00" fill="#000000">IPC</text>
</g>
<!-- Cloud -->
<g id="node3" class="node">
<title>Cloud</title>
<ellipse fill="none" stroke="#000000" cx="364.9927" cy="-177" rx="31.9567" ry="18"/>
<text text-anchor="middle" x="364.9927" y="-172.8" font-family="Times,serif" font-size="14.00" fill="#000000">Cloud</text>
</g>
<!-- Cloud&#45;&#45;avlink -->
<g id="edge9" class="edge">
<title>Cloud&#45;&#45;avlink</title>
<path fill="none" stroke="#000000" d="M334.4005,-171.8853C284.6363,-163.2952 183.2381,-144.6658 98.9927,-122 92.4082,-120.2285 85.4502,-118.1043 78.7984,-115.9462"/>
</g>
<!-- Server -->
<g id="node4" class="node">
<title>Server</title>
<ellipse fill="none" stroke="#000000" cx="140.9927" cy="-104" rx="33.3752" ry="18"/>
<text text-anchor="middle" x="140.9927" y="-99.8" font-family="Times,serif" font-size="14.00" fill="#000000">Server</text>
</g>
<!-- Cloud&#45;&#45;Server -->
<g id="edge1" class="edge">
<title>Cloud&#45;&#45;Server</title>
<path fill="none" stroke="#000000" d="M335.982,-169.3093C299.7894,-159.4695 236.1861,-141.3678 182.9927,-122 177.6256,-120.0458 171.9552,-117.767 166.5767,-115.5008"/>
</g>
<!-- APP -->
<g id="node5" class="node">
<title>APP</title>
<ellipse fill="none" stroke="#000000" cx="218.9927" cy="-104" rx="27" ry="18"/>
<text text-anchor="middle" x="218.9927" y="-99.8" font-family="Times,serif" font-size="14.00" fill="#000000">APP</text>
</g>
<!-- Cloud&#45;&#45;APP -->
<g id="edge2" class="edge">
<title>Cloud&#45;&#45;APP</title>
<path fill="none" stroke="#000000" d="M340.8838,-164.9455C313.0224,-151.0148 267.5762,-128.2917 240.7518,-114.8795"/>
</g>
<!-- ACP -->
<g id="node6" class="node">
<title>ACP</title>
<ellipse fill="none" stroke="#000000" cx="290.9927" cy="-104" rx="27.1216" ry="18"/>
<text text-anchor="middle" x="290.9927" y="-99.8" font-family="Times,serif" font-size="14.00" fill="#000000">ACP</text>
</g>
<!-- Cloud&#45;&#45;ACP -->
<g id="edge3" class="edge">
<title>Cloud&#45;&#45;ACP</title>
<path fill="none" stroke="#000000" d="M348.9358,-161.1601C336.2685,-148.6639 318.7179,-131.3505 306.2597,-119.0606"/>
</g>
<!-- ADT -->
<g id="node7" class="node">
<title>ADT</title>
<ellipse fill="none" stroke="#000000" cx="364.9927" cy="-104" rx="28.0651" ry="18"/>
<text text-anchor="middle" x="364.9927" y="-99.8" font-family="Times,serif" font-size="14.00" fill="#000000">ADT</text>
</g>
<!-- Cloud&#45;&#45;ADT -->
<g id="edge4" class="edge">
<title>Cloud&#45;&#45;ADT</title>
<path fill="none" stroke="#000000" d="M364.9927,-158.9551C364.9927,-147.7241 364.9927,-133.3298 364.9927,-122.0904"/>
</g>
<!-- IPC -->
<g id="node8" class="node">
<title>IPC</title>
<ellipse fill="none" stroke="#000000" cx="349.9927" cy="-18" rx="27" ry="18"/>
<text text-anchor="middle" x="349.9927" y="-13.8" font-family="Times,serif" font-size="14.00" fill="#000000">IPC</text>
</g>
<!-- Cloud&#45;&#45;IPC -->
<g id="edge5" class="edge">
<title>Cloud&#45;&#45;IPC</title>
<path fill="none" stroke="#000000" d="M379.8867,-160.5439C388.1543,-150.2691 397.6274,-136.3096 401.9927,-122 406.6613,-106.6963 407.1233,-101.1551 401.9927,-86 394.8921,-65.0253 378.4415,-45.4307 365.9303,-32.7152"/>
</g>
<!-- SAC -->
<g id="node9" class="node">
<title>SAC</title>
<ellipse fill="none" stroke="#000000" cx="475.9927" cy="-104" rx="27.1216" ry="18"/>
<text text-anchor="middle" x="475.9927" y="-99.8" font-family="Times,serif" font-size="14.00" fill="#000000">SAC</text>
</g>
<!-- Cloud&#45;&#45;SAC -->
<g id="edge6" class="edge">
<title>Cloud&#45;&#45;SAC</title>
<path fill="none" stroke="#000000" d="M390.1825,-165.9951C403.9199,-159.5205 420.9386,-150.7099 434.9927,-141 444.1433,-134.678 453.4194,-126.4884 460.8284,-119.4217"/>
</g>
<!-- DMT -->
<g id="node10" class="node">
<title>DMT</title>
<ellipse fill="none" stroke="#000000" cx="550.9927" cy="-104" rx="29.5189" ry="18"/>
<text text-anchor="middle" x="550.9927" y="-99.8" font-family="Times,serif" font-size="14.00" fill="#000000">DMT</text>
</g>
<!-- Cloud&#45;&#45;DMT -->
<g id="edge7" class="edge">
<title>Cloud&#45;&#45;DMT</title>
<path fill="none" stroke="#000000" d="M390.0151,-165.6459C395.2621,-163.369 400.7841,-161.0488 405.9927,-159 452.4282,-140.7346 465.7303,-140.6992 511.9927,-122 517.1089,-119.932 522.5261,-117.5556 527.6426,-115.2218"/>
</g>
<!-- DVP -->
<g id="node11" class="node">
<title>DVP</title>
<ellipse fill="none" stroke="#000000" cx="626.9927" cy="-104" rx="27.5976" ry="18"/>
<text text-anchor="middle" x="626.9927" y="-99.8" font-family="Times,serif" font-size="14.00" fill="#000000">DVP</text>
</g>
<!-- Cloud&#45;&#45;DVP -->
<g id="edge8" class="edge">
<title>Cloud&#45;&#45;DVP</title>
<path fill="none" stroke="#000000" d="M389.3785,-165.2708C394.7675,-162.9686 400.5075,-160.7333 405.9927,-159 485.5309,-133.8664 510.9609,-148.6832 589.9927,-122 595.1365,-120.2633 600.4871,-117.9714 605.4684,-115.6069"/>
</g>
<!-- Server&#45;&#45;IPC -->
<g id="edge11" class="edge">
<title>Server&#45;&#45;IPC</title>
<path fill="none" stroke="#000000" d="M167.1747,-92.692C172.4069,-90.4569 177.8689,-88.1409 182.9927,-86 234.1181,-64.6379 294.3798,-40.3087 326.7039,-27.3273"/>
<text text-anchor="middle" x="271.8858" y="-56.8" font-family="Times,serif" font-size="14.00" fill="#000000">IPC</text>
</g>
<!-- VOIP -->
<g id="node12" class="node">
<title>VOIP</title>
<ellipse fill="none" stroke="#000000" cx="140.9927" cy="-18" rx="30.988" ry="18"/>
<text text-anchor="middle" x="140.9927" y="-13.8" font-family="Times,serif" font-size="14.00" fill="#000000">VOIP</text>
</g>
<!-- Server&#45;&#45;VOIP -->
<g id="edge10" class="edge">
<title>Server&#45;&#45;VOIP</title>
<path fill="none" stroke="#000000" d="M140.9927,-85.7616C140.9927,-71.1671 140.9927,-50.7996 140.9927,-36.2121"/>
</g>
</g>
</svg>
