<?xml version="1.0" encoding="UTF-8" standalone="no"?>
<!DOCTYPE svg PUBLIC "-//W3C//DTD SVG 1.1//EN"
 "http://www.w3.org/Graphics/SVG/1.1/DTD/svg11.dtd">
<!-- Generated by graphviz version 2.40.1 (20161225.0304)
 -->
<!-- Title: cloud Pages: 1 -->
<svg width="1792pt" height="1752pt"
 viewBox="0.00 0.00 1792.21 1751.68" xmlns="http://www.w3.org/2000/svg" xmlns:xlink="http://www.w3.org/1999/xlink">
<g id="graph0" class="graph" transform="scale(1 1) rotate(0) translate(4 1747.6803)">
<title>cloud</title>
<polygon fill="#ffffff" stroke="transparent" points="-4,4 -4,-1747.6803 1788.2149,-1747.6803 1788.2149,4 -4,4"/>
<!-- a -->
<g id="node1" class="node">
<title>a</title>
<ellipse fill="none" stroke="#000000" cx="844.2395" cy="-876.7926" rx="31.9567" ry="18"/>
<text text-anchor="middle" x="844.2395" y="-872.5926" font-family="Times,serif" font-size="14.00" fill="#000000">Cloud</text>
</g>
<!-- b1 -->
<g id="node2" class="node">
<title>b1</title>
<ellipse fill="none" stroke="#000000" cx="1540.1733" cy="-876.7926" rx="33.3752" ry="18"/>
<text text-anchor="middle" x="1540.1733" y="-872.5926" font-family="Times,serif" font-size="14.00" fill="#000000">Server</text>
</g>
<!-- a&#45;&#45;b1 -->
<g id="edge1" class="edge">
<title>a&#45;&#45;b1</title>
<path fill="none" stroke="#000000" d="M876.4101,-876.7926C992.4279,-876.7926 1388.6872,-876.7926 1506.7298,-876.7926"/>
</g>
<!-- b2 -->
<g id="node13" class="node">
<title>b2</title>
<ellipse fill="none" stroke="#000000" cx="1325.2201" cy="-1379.7654" rx="27" ry="18"/>
<text text-anchor="middle" x="1325.2201" y="-1375.5654" font-family="Times,serif" font-size="14.00" fill="#000000">APP</text>
</g>
<!-- a&#45;&#45;b2 -->
<g id="edge2" class="edge">
<title>a&#45;&#45;b2</title>
<path fill="none" stroke="#000000" d="M859.4287,-892.6763C931.605,-968.1528 1239.3632,-1289.9828 1310.5028,-1364.3752"/>
</g>
<!-- b3 -->
<g id="node23" class="node">
<title>b3</title>
<ellipse fill="none" stroke="#000000" cx="874.6371" cy="-1572.0623" rx="27.1216" ry="18"/>
<text text-anchor="middle" x="874.6371" y="-1567.8623" font-family="Times,serif" font-size="14.00" fill="#000000">ACP</text>
</g>
<!-- a&#45;&#45;b3 -->
<g id="edge3" class="edge">
<title>a&#45;&#45;b3</title>
<path fill="none" stroke="#000000" d="M845.0369,-895.032C849.3225,-993.054 869.5832,-1456.468 873.848,-1554.0138"/>
</g>
<!-- b4 -->
<g id="node31" class="node">
<title>b4</title>
<ellipse fill="none" stroke="#000000" cx="453.9126" cy="-1452.96" rx="28.0651" ry="18"/>
<text text-anchor="middle" x="453.9126" y="-1448.76" font-family="Times,serif" font-size="14.00" fill="#000000">ADT</text>
</g>
<!-- a&#45;&#45;b4 -->
<g id="edge4" class="edge">
<title>a&#45;&#45;b4</title>
<path fill="none" stroke="#000000" d="M832.7691,-893.7242C775.5996,-978.113 521.933,-1352.5539 465.1954,-1436.3052"/>
</g>
<!-- b5 -->
<g id="node38" class="node">
<title>b5</title>
<ellipse fill="none" stroke="#000000" cx="192.4459" cy="-1120.6963" rx="27" ry="18"/>
<text text-anchor="middle" x="192.4459" y="-1116.4963" font-family="Times,serif" font-size="14.00" fill="#000000">IPC</text>
</g>
<!-- a&#45;&#45;b5 -->
<g id="edge5" class="edge">
<title>a&#45;&#45;b5</title>
<path fill="none" stroke="#000000" d="M817.4733,-886.8087C710.8727,-926.699 317.4248,-1073.9287 216.2776,-1111.7784"/>
</g>
<!-- b6 -->
<g id="node44" class="node">
<title>b6</title>
<ellipse fill="none" stroke="#000000" cx="171.3079" cy="-699.3471" rx="27.1216" ry="18"/>
<text text-anchor="middle" x="171.3079" y="-695.1471" font-family="Times,serif" font-size="14.00" fill="#000000">SAC</text>
</g>
<!-- a&#45;&#45;b6 -->
<g id="edge6" class="edge">
<title>a&#45;&#45;b6</title>
<path fill="none" stroke="#000000" d="M815.3245,-869.168C703.7536,-839.7479 302.2511,-733.8756 196.8149,-706.0731"/>
</g>
<!-- b7 -->
<g id="node50" class="node">
<title>b7</title>
<ellipse fill="none" stroke="#000000" cx="442.7105" cy="-308.3753" rx="29.5189" ry="18"/>
<text text-anchor="middle" x="442.7105" y="-304.1753" font-family="Times,serif" font-size="14.00" fill="#000000">DMT</text>
</g>
<!-- a&#45;&#45;b7 -->
<g id="edge7" class="edge">
<title>a&#45;&#45;b7</title>
<path fill="none" stroke="#000000" d="M832.2225,-859.781C773.0465,-776.0096 513.1124,-408.0385 454.4859,-325.045"/>
</g>
<!-- b8 -->
<g id="node60" class="node">
<title>b8</title>
<ellipse fill="none" stroke="#000000" cx="934.6229" cy="-186.753" rx="27.5976" ry="18"/>
<text text-anchor="middle" x="934.6229" y="-182.553" font-family="Times,serif" font-size="14.00" fill="#000000">DVP</text>
</g>
<!-- a&#45;&#45;b8 -->
<g id="edge8" class="edge">
<title>a&#45;&#45;b8</title>
<path fill="none" stroke="#000000" d="M846.6106,-858.6904C859.3393,-761.5122 919.4643,-302.4826 932.2349,-204.9844"/>
</g>
<!-- b9 -->
<g id="node69" class="node">
<title>b9</title>
<ellipse fill="none" stroke="#000000" cx="1352.7221" cy="-401.6408" rx="44.9855" ry="18"/>
<text text-anchor="middle" x="1352.7221" y="-397.4408" font-family="Times,serif" font-size="14.00" fill="#000000">AV&#45;LINK</text>
</g>
<!-- a&#45;&#45;b9 -->
<g id="edge9" class="edge">
<title>a&#45;&#45;b9</title>
<path fill="none" stroke="#000000" d="M860.8685,-861.2536C937.4624,-789.6805 1255.9019,-492.1145 1334.9182,-418.2777"/>
</g>
<!-- b1_1 -->
<g id="node3" class="node">
<title>b1_1</title>
<ellipse fill="none" stroke="#000000" cx="1334.5874" cy="-812.8984" rx="30.988" ry="18"/>
<text text-anchor="middle" x="1334.5874" y="-808.6984" font-family="Times,serif" font-size="14.00" fill="#000000">VOIP</text>
</g>
<!-- b1&#45;&#45;b1_1 -->
<g id="edge10" class="edge">
<title>b1&#45;&#45;b1_1</title>
<path fill="none" stroke="#000000" d="M1511.1539,-867.7737C1471.4186,-855.4243 1400.5983,-833.414 1361.8205,-821.3622"/>
</g>
<!-- b1_2 -->
<g id="node4" class="node">
<title>b1_2</title>
<ellipse fill="none" stroke="#000000" cx="1407.0219" cy="-707.6219" rx="27" ry="18"/>
<text text-anchor="middle" x="1407.0219" y="-703.4219" font-family="Times,serif" font-size="14.00" fill="#000000">IPC</text>
</g>
<!-- b1&#45;&#45;b1_2 -->
<g id="edge11" class="edge">
<title>b1&#45;&#45;b1_2</title>
<path fill="none" stroke="#000000" d="M1526.9194,-859.9534C1501.2655,-827.3597 1445.1273,-756.0354 1419.8306,-723.8955"/>
</g>
<!-- b1_3 -->
<g id="node5" class="node">
<title>b1_3</title>
<ellipse fill="none" stroke="#000000" cx="1535.1957" cy="-661.5643" rx="39.6558" ry="18"/>
<text text-anchor="middle" x="1535.1957" y="-657.3643" font-family="Times,serif" font-size="14.00" fill="#000000">Register</text>
</g>
<!-- b1&#45;&#45;b1_3 -->
<g id="edge12" class="edge">
<title>b1&#45;&#45;b1_3</title>
<path fill="none" stroke="#000000" d="M1539.7489,-858.4424C1538.8062,-817.6781 1536.5472,-720.0008 1535.612,-679.5645"/>
</g>
<!-- b1_4 -->
<g id="node6" class="node">
<title>b1_4</title>
<ellipse fill="none" stroke="#000000" cx="1666.0066" cy="-702.1101" rx="27.589" ry="18"/>
<text text-anchor="middle" x="1666.0066" y="-697.9101" font-family="Times,serif" font-size="14.00" fill="#000000">Sync</text>
</g>
<!-- b1&#45;&#45;b1_4 -->
<g id="edge13" class="edge">
<title>b1&#45;&#45;b1_4</title>
<path fill="none" stroke="#000000" d="M1552.4678,-859.7253C1576.7098,-826.0725 1630.3856,-751.5594 1654.2145,-718.48"/>
</g>
<!-- b1_5 -->
<g id="node7" class="node">
<title>b1_5</title>
<ellipse fill="none" stroke="#000000" cx="1745.6087" cy="-812.4161" rx="38.7128" ry="18"/>
<text text-anchor="middle" x="1745.6087" y="-808.2161" font-family="Times,serif" font-size="14.00" fill="#000000">Binding</text>
</g>
<!-- b1&#45;&#45;b1_5 -->
<g id="edge14" class="edge">
<title>b1&#45;&#45;b1_5</title>
<path fill="none" stroke="#000000" d="M1569.1714,-867.7056C1607.2187,-855.7829 1673.7865,-834.9228 1713.3753,-822.517"/>
</g>
<!-- b1_6 -->
<g id="node8" class="node">
<title>b1_6</title>
<ellipse fill="none" stroke="#000000" cx="1741.5083" cy="-953.0306" rx="32.8994" ry="18"/>
<text text-anchor="middle" x="1741.5083" y="-948.8306" font-family="Times,serif" font-size="14.00" fill="#000000">Alarm</text>
</g>
<!-- b1&#45;&#45;b1_6 -->
<g id="edge15" class="edge">
<title>b1&#45;&#45;b1_6</title>
<path fill="none" stroke="#000000" d="M1567.7459,-887.2334C1606.3013,-901.8328 1675.893,-928.1846 1714.2687,-942.716"/>
</g>
<!-- b1_7 -->
<g id="node9" class="node">
<title>b1_7</title>
<ellipse fill="none" stroke="#000000" cx="1661.2132" cy="-1054.8302" rx="27" ry="18"/>
<text text-anchor="middle" x="1661.2132" y="-1050.6302" font-family="Times,serif" font-size="14.00" fill="#000000">RSS</text>
</g>
<!-- b1&#45;&#45;b1_7 -->
<g id="edge16" class="edge">
<title>b1&#45;&#45;b1_7</title>
<path fill="none" stroke="#000000" d="M1551.7791,-893.8636C1575.0331,-928.068 1627.0646,-1004.601 1649.9949,-1038.3291"/>
</g>
<!-- b1_8 -->
<g id="node10" class="node">
<title>b1_8</title>
<ellipse fill="none" stroke="#000000" cx="1532.0788" cy="-1091.9264" rx="37.7785" ry="18"/>
<text text-anchor="middle" x="1532.0788" y="-1087.7264" font-family="Times,serif" font-size="14.00" fill="#000000">Web UI</text>
</g>
<!-- b1&#45;&#45;b1_8 -->
<g id="edge17" class="edge">
<title>b1&#45;&#45;b1_8</title>
<path fill="none" stroke="#000000" d="M1539.4832,-895.1348C1537.9539,-935.7796 1534.2948,-1033.0289 1532.7672,-1073.6306"/>
</g>
<!-- b1_9 -->
<g id="node11" class="node">
<title>b1_9</title>
<ellipse fill="none" stroke="#000000" cx="1405.0966" cy="-1044.4301" rx="28.0651" ry="18"/>
<text text-anchor="middle" x="1405.0966" y="-1040.2301" font-family="Times,serif" font-size="14.00" fill="#000000">Door</text>
</g>
<!-- b1&#45;&#45;b1_9 -->
<g id="edge18" class="edge">
<title>b1&#45;&#45;b1_9</title>
<path fill="none" stroke="#000000" d="M1526.7278,-893.4792C1500.7029,-925.7776 1443.753,-996.4554 1418.0904,-1028.304"/>
</g>
<!-- b1_10 -->
<g id="node12" class="node">
<title>b1_10</title>
<ellipse fill="none" stroke="#000000" cx="1334.5874" cy="-940.6869" rx="27" ry="18"/>
<text text-anchor="middle" x="1334.5874" y="-936.4869" font-family="Times,serif" font-size="14.00" fill="#000000">Log</text>
</g>
<!-- b1&#45;&#45;b1_10 -->
<g id="edge19" class="edge">
<title>b1&#45;&#45;b1_10</title>
<path fill="none" stroke="#000000" d="M1511.1539,-885.8116C1470.5331,-898.4362 1397.4266,-921.1571 1359.2765,-933.0137"/>
</g>
<!-- b2_1 -->
<g id="node14" class="node">
<title>b2_1</title>
<ellipse fill="none" stroke="#000000" cx="1243.363" cy="-1202.0122" rx="30.988" ry="18"/>
<text text-anchor="middle" x="1243.363" y="-1197.8122" font-family="Times,serif" font-size="14.00" fill="#000000">VOIP</text>
</g>
<!-- b2&#45;&#45;b2_1 -->
<g id="edge20" class="edge">
<title>b2&#45;&#45;b2_1</title>
<path fill="none" stroke="#000000" d="M1317.2222,-1362.398C1301.5731,-1328.4157 1267.0685,-1253.4889 1251.3933,-1219.45"/>
</g>
<!-- b2_2 -->
<g id="node15" class="node">
<title>b2_2</title>
<ellipse fill="none" stroke="#000000" cx="1381.7843" cy="-1192.4227" rx="39.1887" ry="18"/>
<text text-anchor="middle" x="1381.7843" y="-1188.2227" font-family="Times,serif" font-size="14.00" fill="#000000">Monitor</text>
</g>
<!-- b2&#45;&#45;b2_2 -->
<g id="edge21" class="edge">
<title>b2&#45;&#45;b2_2</title>
<path fill="none" stroke="#000000" d="M1330.6437,-1361.8022C1341.4554,-1325.9933 1365.5788,-1246.0957 1376.3771,-1210.3315"/>
</g>
<!-- b2_3 -->
<g id="node16" class="node">
<title>b2_3</title>
<ellipse fill="none" stroke="#000000" cx="1496.2373" cy="-1284.6346" rx="39.6558" ry="18"/>
<text text-anchor="middle" x="1496.2373" y="-1280.4346" font-family="Times,serif" font-size="14.00" fill="#000000">Register</text>
</g>
<!-- b2&#45;&#45;b2_3 -->
<g id="edge22" class="edge">
<title>b2&#45;&#45;b2_3</title>
<path fill="none" stroke="#000000" d="M1346.1901,-1368.1005C1377.6751,-1350.5865 1437.0695,-1317.5475 1470.9226,-1298.7162"/>
</g>
<!-- b2_4 -->
<g id="node17" class="node">
<title>b2_4</title>
<ellipse fill="none" stroke="#000000" cx="1516.8361" cy="-1419.5155" rx="27.589" ry="18"/>
<text text-anchor="middle" x="1516.8361" y="-1415.3155" font-family="Times,serif" font-size="14.00" fill="#000000">Sync</text>
</g>
<!-- b2&#45;&#45;b2_4 -->
<g id="edge23" class="edge">
<title>b2&#45;&#45;b2_4</title>
<path fill="none" stroke="#000000" d="M1351.0622,-1385.1263C1387.4292,-1392.6705 1453.3683,-1406.3493 1490.1738,-1413.9845"/>
</g>
<!-- b2_5 -->
<g id="node18" class="node">
<title>b2_5</title>
<ellipse fill="none" stroke="#000000" cx="1445.0543" cy="-1534.4797" rx="38.7128" ry="18"/>
<text text-anchor="middle" x="1445.0543" y="-1530.2797" font-family="Times,serif" font-size="14.00" fill="#000000">Binding</text>
</g>
<!-- b2&#45;&#45;b2_5 -->
<g id="edge24" class="edge">
<title>b2&#45;&#45;b2_5</title>
<path fill="none" stroke="#000000" d="M1337.8179,-1396.0301C1360.6528,-1425.5115 1408.6625,-1487.4954 1431.8997,-1517.4962"/>
</g>
<!-- b2_6 -->
<g id="node19" class="node">
<title>b2_6</title>
<ellipse fill="none" stroke="#000000" cx="1310.8967" cy="-1574.9361" rx="32.8994" ry="18"/>
<text text-anchor="middle" x="1310.8967" y="-1570.7361" font-family="Times,serif" font-size="14.00" fill="#000000">Alarm</text>
</g>
<!-- b2&#45;&#45;b2_6 -->
<g id="edge25" class="edge">
<title>b2&#45;&#45;b2_6</title>
<path fill="none" stroke="#000000" d="M1323.8982,-1397.7767C1321.1765,-1434.8632 1314.9729,-1519.3942 1312.2362,-1556.6845"/>
</g>
<!-- b2_7 -->
<g id="node20" class="node">
<title>b2_7</title>
<ellipse fill="none" stroke="#000000" cx="1192.3661" cy="-1523.4547" rx="27" ry="18"/>
<text text-anchor="middle" x="1192.3661" y="-1519.2547" font-family="Times,serif" font-size="14.00" fill="#000000">RSS</text>
</g>
<!-- b2&#45;&#45;b2_7 -->
<g id="edge26" class="edge">
<title>b2&#45;&#45;b2_7</title>
<path fill="none" stroke="#000000" d="M1311.0024,-1395.1426C1285.5656,-1422.654 1232.5367,-1480.0079 1206.8844,-1507.7523"/>
</g>
<!-- b2_8 -->
<g id="node21" class="node">
<title>b2_8</title>
<ellipse fill="none" stroke="#000000" cx="1132.4846" cy="-1413.6744" rx="28.0651" ry="18"/>
<text text-anchor="middle" x="1132.4846" y="-1409.4744" font-family="Times,serif" font-size="14.00" fill="#000000">Door</text>
</g>
<!-- b2&#45;&#45;b2_8 -->
<g id="edge27" class="edge">
<title>b2&#45;&#45;b2_8</title>
<path fill="none" stroke="#000000" d="M1298.8251,-1384.4092C1262.329,-1390.8301 1196.7823,-1402.3621 1159.8032,-1408.868"/>
</g>
<!-- b2_9 -->
<g id="node22" class="node">
<title>b2_9</title>
<ellipse fill="none" stroke="#000000" cx="1151.3017" cy="-1290.0482" rx="27" ry="18"/>
<text text-anchor="middle" x="1151.3017" y="-1285.8482" font-family="Times,serif" font-size="14.00" fill="#000000">Log</text>
</g>
<!-- b2&#45;&#45;b2_9 -->
<g id="edge28" class="edge">
<title>b2&#45;&#45;b2_9</title>
<path fill="none" stroke="#000000" d="M1303.5448,-1368.584C1270.0353,-1351.2979 1206.0467,-1318.2888 1172.7037,-1301.0886"/>
</g>
<!-- b3_1 -->
<g id="node24" class="node">
<title>b3_1</title>
<ellipse fill="none" stroke="#000000" cx="931.4135" cy="-1429.1531" rx="30.988" ry="18"/>
<text text-anchor="middle" x="931.4135" y="-1424.9531" font-family="Times,serif" font-size="14.00" fill="#000000">VOIP</text>
</g>
<!-- b3&#45;&#45;b3_1 -->
<g id="edge29" class="edge">
<title>b3&#45;&#45;b3_1</title>
<path fill="none" stroke="#000000" d="M881.599,-1554.5388C892.4959,-1527.1107 913.4628,-1474.3361 924.3947,-1446.8199"/>
</g>
<!-- b3_2 -->
<g id="node25" class="node">
<title>b3_2</title>
<ellipse fill="none" stroke="#000000" cx="1022.8299" cy="-1531.0078" rx="39.1887" ry="18"/>
<text text-anchor="middle" x="1022.8299" y="-1526.8078" font-family="Times,serif" font-size="14.00" fill="#000000">Monitor</text>
</g>
<!-- b3&#45;&#45;b3_2 -->
<g id="edge30" class="edge">
<title>b3&#45;&#45;b3_2</title>
<path fill="none" stroke="#000000" d="M900.1123,-1565.0048C924.6905,-1558.1958 962.0475,-1547.8466 989.0875,-1540.3556"/>
</g>
<!-- b3_3 -->
<g id="node26" class="node">
<title>b3_3</title>
<ellipse fill="none" stroke="#000000" cx="991.297" cy="-1672.2474" rx="39.6558" ry="18"/>
<text text-anchor="middle" x="991.297" y="-1668.0474" font-family="Times,serif" font-size="14.00" fill="#000000">Register</text>
</g>
<!-- b3&#45;&#45;b3_3 -->
<g id="edge31" class="edge">
<title>b3&#45;&#45;b3_3</title>
<path fill="none" stroke="#000000" d="M891.3516,-1586.4164C912.8986,-1604.9205 950.254,-1637.0005 972.6849,-1656.2637"/>
</g>
<!-- b3_4 -->
<g id="node27" class="node">
<title>b3_4</title>
<ellipse fill="none" stroke="#000000" cx="867.7027" cy="-1725.6803" rx="27.589" ry="18"/>
<text text-anchor="middle" x="867.7027" y="-1721.4803" font-family="Times,serif" font-size="14.00" fill="#000000">Sync</text>
</g>
<!-- b3&#45;&#45;b3_4 -->
<g id="edge32" class="edge">
<title>b3&#45;&#45;b3_4</title>
<path fill="none" stroke="#000000" d="M873.8144,-1590.2875C872.4798,-1619.8527 869.8582,-1677.9289 868.5243,-1707.4788"/>
</g>
<!-- b3_5 -->
<g id="node28" class="node">
<title>b3_5</title>
<ellipse fill="none" stroke="#000000" cx="749.9917" cy="-1662.1185" rx="38.7128" ry="18"/>
<text text-anchor="middle" x="749.9917" y="-1657.9185" font-family="Times,serif" font-size="14.00" fill="#000000">Binding</text>
</g>
<!-- b3&#45;&#45;b3_5 -->
<g id="edge33" class="edge">
<title>b3&#45;&#45;b3_5</title>
<path fill="none" stroke="#000000" d="M855.9764,-1585.5446C833.2932,-1601.9332 795.1024,-1629.526 771.2895,-1646.7308"/>
</g>
<!-- b3_6 -->
<g id="node29" class="node">
<title>b3_6</title>
<ellipse fill="none" stroke="#000000" cx="726.7466" cy="-1529.9316" rx="28.0651" ry="18"/>
<text text-anchor="middle" x="726.7466" y="-1525.7316" font-family="Times,serif" font-size="14.00" fill="#000000">Door</text>
</g>
<!-- b3&#45;&#45;b3_6 -->
<g id="edge34" class="edge">
<title>b3&#45;&#45;b3_6</title>
<path fill="none" stroke="#000000" d="M849.5495,-1564.9154C822.6015,-1557.2385 779.9838,-1545.0977 752.7042,-1537.3264"/>
</g>
<!-- b3_7 -->
<g id="node30" class="node">
<title>b3_7</title>
<ellipse fill="none" stroke="#000000" cx="805.6049" cy="-1434.6536" rx="27" ry="18"/>
<text text-anchor="middle" x="805.6049" y="-1430.4536" font-family="Times,serif" font-size="14.00" fill="#000000">Log</text>
</g>
<!-- b3&#45;&#45;b3_7 -->
<g id="edge35" class="edge">
<title>b3&#45;&#45;b3_7</title>
<path fill="none" stroke="#000000" d="M866.0337,-1554.9372C852.8053,-1528.606 827.6102,-1478.4551 814.3168,-1451.9944"/>
</g>
<!-- b4_1 -->
<g id="node32" class="node">
<title>b4_1</title>
<ellipse fill="none" stroke="#000000" cx="578.3439" cy="-1389.1043" rx="30.988" ry="18"/>
<text text-anchor="middle" x="578.3439" y="-1384.9043" font-family="Times,serif" font-size="14.00" fill="#000000">VOIP</text>
</g>
<!-- b4&#45;&#45;b4_1 -->
<g id="edge36" class="edge">
<title>b4&#45;&#45;b4_1</title>
<path fill="none" stroke="#000000" d="M476.1584,-1441.5438C498.3879,-1430.1361 532.423,-1412.67 555.0237,-1401.0718"/>
</g>
<!-- b4_2 -->
<g id="node33" class="node">
<title>b4_2</title>
<ellipse fill="none" stroke="#000000" cx="567.8833" cy="-1534.0239" rx="39.6558" ry="18"/>
<text text-anchor="middle" x="567.8833" y="-1529.8239" font-family="Times,serif" font-size="14.00" fill="#000000">Register</text>
</g>
<!-- b4&#45;&#45;b4_2 -->
<g id="edge37" class="edge">
<title>b4&#45;&#45;b4_2</title>
<path fill="none" stroke="#000000" d="M472.9887,-1466.5282C493.2666,-1480.9513 525.2653,-1503.7111 546.4128,-1518.7526"/>
</g>
<!-- b4_3 -->
<g id="node34" class="node">
<title>b4_3</title>
<ellipse fill="none" stroke="#000000" cx="437.343" cy="-1591.8345" rx="27.589" ry="18"/>
<text text-anchor="middle" x="437.343" y="-1587.6345" font-family="Times,serif" font-size="14.00" fill="#000000">Sync</text>
</g>
<!-- b4&#45;&#45;b4_3 -->
<g id="edge38" class="edge">
<title>b4&#45;&#45;b4_3</title>
<path fill="none" stroke="#000000" d="M451.7464,-1471.1154C448.5708,-1497.7306 442.6855,-1547.0569 439.5097,-1573.6746"/>
</g>
<!-- b4_4 -->
<g id="node35" class="node">
<title>b4_4</title>
<ellipse fill="none" stroke="#000000" cx="324.4329" cy="-1505.8343" rx="38.7128" ry="18"/>
<text text-anchor="middle" x="324.4329" y="-1501.6343" font-family="Times,serif" font-size="14.00" fill="#000000">Binding</text>
</g>
<!-- b4&#45;&#45;b4_4 -->
<g id="edge39" class="edge">
<title>b4&#45;&#45;b4_4</title>
<path fill="none" stroke="#000000" d="M429.8619,-1462.7813C408.3605,-1471.5616 376.7893,-1484.454 353.8024,-1493.8409"/>
</g>
<!-- b4_5 -->
<g id="node36" class="node">
<title>b4_5</title>
<ellipse fill="none" stroke="#000000" cx="345.1746" cy="-1365.0012" rx="28.0651" ry="18"/>
<text text-anchor="middle" x="345.1746" y="-1360.8012" font-family="Times,serif" font-size="14.00" fill="#000000">Door</text>
</g>
<!-- b4&#45;&#45;b4_5 -->
<g id="edge40" class="edge">
<title>b4&#45;&#45;b4_5</title>
<path fill="none" stroke="#000000" d="M435.9567,-1438.4353C415.6887,-1422.0404 382.9258,-1395.5384 362.7964,-1379.2555"/>
</g>
<!-- b4_6 -->
<g id="node37" class="node">
<title>b4_6</title>
<ellipse fill="none" stroke="#000000" cx="467.0688" cy="-1313.7206" rx="27" ry="18"/>
<text text-anchor="middle" x="467.0688" y="-1309.5206" font-family="Times,serif" font-size="14.00" fill="#000000">Log</text>
</g>
<!-- b4&#45;&#45;b4_6 -->
<g id="edge41" class="edge">
<title>b4&#45;&#45;b4_6</title>
<path fill="none" stroke="#000000" d="M455.6325,-1434.7568C458.1539,-1408.0717 462.8268,-1358.6158 465.3484,-1331.9282"/>
</g>
<!-- b5_1 -->
<g id="node39" class="node">
<title>b5_1</title>
<ellipse fill="none" stroke="#000000" cx="325.7135" cy="-1158.6906" rx="39.6558" ry="18"/>
<text text-anchor="middle" x="325.7135" y="-1154.4906" font-family="Times,serif" font-size="14.00" fill="#000000">Register</text>
</g>
<!-- b5&#45;&#45;b5_1 -->
<g id="edge42" class="edge">
<title>b5&#45;&#45;b5_1</title>
<path fill="none" stroke="#000000" d="M217.5125,-1127.8427C238.5489,-1133.8402 268.7881,-1142.4613 291.9539,-1149.0658"/>
</g>
<!-- b5_2 -->
<g id="node40" class="node">
<title>b5_2</title>
<ellipse fill="none" stroke="#000000" cx="194.6264" cy="-1259.257" rx="27.589" ry="18"/>
<text text-anchor="middle" x="194.6264" y="-1255.057" font-family="Times,serif" font-size="14.00" fill="#000000">Sync</text>
</g>
<!-- b5&#45;&#45;b5_2 -->
<g id="edge43" class="edge">
<title>b5&#45;&#45;b5_2</title>
<path fill="none" stroke="#000000" d="M192.731,-1138.8107C193.1489,-1165.3657 193.9234,-1214.5806 194.3413,-1241.1382"/>
</g>
<!-- b5_3 -->
<g id="node41" class="node">
<title>b5_3</title>
<ellipse fill="none" stroke="#000000" cx="60.7387" cy="-1163.7896" rx="38.7128" ry="18"/>
<text text-anchor="middle" x="60.7387" y="-1159.5896" font-family="Times,serif" font-size="14.00" fill="#000000">Binding</text>
</g>
<!-- b5&#45;&#45;b5_3 -->
<g id="edge44" class="edge">
<title>b5&#45;&#45;b5_3</title>
<path fill="none" stroke="#000000" d="M167.9815,-1128.7008C146.7053,-1135.6622 115.736,-1145.7951 92.5413,-1153.3841"/>
</g>
<!-- b5_4 -->
<g id="node42" class="node">
<title>b5_4</title>
<ellipse fill="none" stroke="#000000" cx="112.6999" cy="-1007.3632" rx="28.0651" ry="18"/>
<text text-anchor="middle" x="112.6999" y="-1003.1632" font-family="Times,serif" font-size="14.00" fill="#000000">Door</text>
</g>
<!-- b5&#45;&#45;b5_4 -->
<g id="edge45" class="edge">
<title>b5&#45;&#45;b5_4</title>
<path fill="none" stroke="#000000" d="M180.6791,-1103.9736C165.6018,-1082.5461 139.6155,-1045.615 124.515,-1024.1545"/>
</g>
<!-- b5_5 -->
<g id="node43" class="node">
<title>b5_5</title>
<ellipse fill="none" stroke="#000000" cx="268.0327" cy="-1004.5479" rx="27" ry="18"/>
<text text-anchor="middle" x="268.0327" y="-1000.3479" font-family="Times,serif" font-size="14.00" fill="#000000">Log</text>
</g>
<!-- b5&#45;&#45;b5_5 -->
<g id="edge46" class="edge">
<title>b5&#45;&#45;b5_5</title>
<path fill="none" stroke="#000000" d="M203.2757,-1104.0551C217.6447,-1081.9753 242.8642,-1043.2225 257.2231,-1021.1583"/>
</g>
<!-- b6_1 -->
<g id="node45" class="node">
<title>b6_1</title>
<ellipse fill="none" stroke="#000000" cx="258.3358" cy="-807.5876" rx="39.6558" ry="18"/>
<text text-anchor="middle" x="258.3358" y="-803.3876" font-family="Times,serif" font-size="14.00" fill="#000000">Register</text>
</g>
<!-- b6&#45;&#45;b6_1 -->
<g id="edge47" class="edge">
<title>b6&#45;&#45;b6_1</title>
<path fill="none" stroke="#000000" d="M184.1491,-715.3184C200.3195,-735.4302 227.9881,-769.8428 244.579,-790.4777"/>
</g>
<!-- b6_2 -->
<g id="node46" class="node">
<title>b6_2</title>
<ellipse fill="none" stroke="#000000" cx="92.8749" cy="-813.9688" rx="27.589" ry="18"/>
<text text-anchor="middle" x="92.8749" y="-809.7688" font-family="Times,serif" font-size="14.00" fill="#000000">Sync</text>
</g>
<!-- b6&#45;&#45;b6_2 -->
<g id="edge48" class="edge">
<title>b6&#45;&#45;b6_2</title>
<path fill="none" stroke="#000000" d="M160.0703,-715.7696C145.245,-737.4354 119.2882,-775.3685 104.3466,-797.204"/>
</g>
<!-- b6_3 -->
<g id="node47" class="node">
<title>b6_3</title>
<ellipse fill="none" stroke="#000000" cx="38.6063" cy="-658.3575" rx="38.7128" ry="18"/>
<text text-anchor="middle" x="38.6063" y="-654.1575" font-family="Times,serif" font-size="14.00" fill="#000000">Binding</text>
</g>
<!-- b6&#45;&#45;b6_3 -->
<g id="edge49" class="edge">
<title>b6&#45;&#45;b6_3</title>
<path fill="none" stroke="#000000" d="M146.3477,-691.6373C125.0253,-685.0511 94.2077,-675.532 70.9892,-668.3601"/>
</g>
<!-- b6_4 -->
<g id="node48" class="node">
<title>b6_4</title>
<ellipse fill="none" stroke="#000000" cx="171.6684" cy="-560.4596" rx="28.0651" ry="18"/>
<text text-anchor="middle" x="171.6684" y="-556.2596" font-family="Times,serif" font-size="14.00" fill="#000000">Door</text>
</g>
<!-- b6&#45;&#45;b6_4 -->
<g id="edge50" class="edge">
<title>b6&#45;&#45;b6_4</title>
<path fill="none" stroke="#000000" d="M171.355,-681.19C171.4241,-654.5723 171.5521,-605.2414 171.6212,-578.6212"/>
</g>
<!-- b6_5 -->
<g id="node49" class="node">
<title>b6_5</title>
<ellipse fill="none" stroke="#000000" cx="300.3929" cy="-648.0935" rx="27" ry="18"/>
<text text-anchor="middle" x="300.3929" y="-643.8935" font-family="Times,serif" font-size="14.00" fill="#000000">Log</text>
</g>
<!-- b6&#45;&#45;b6_5 -->
<g id="edge51" class="edge">
<title>b6&#45;&#45;b6_5</title>
<path fill="none" stroke="#000000" d="M194.9841,-689.9464C218.2751,-680.6986 253.6277,-666.6618 276.8668,-657.4346"/>
</g>
<!-- b7_1 -->
<g id="node51" class="node">
<title>b7_1</title>
<ellipse fill="none" stroke="#000000" cx="497.4529" cy="-496.2583" rx="30.988" ry="18"/>
<text text-anchor="middle" x="497.4529" y="-492.0583" font-family="Times,serif" font-size="14.00" fill="#000000">VOIP</text>
</g>
<!-- b7&#45;&#45;b7_1 -->
<g id="edge52" class="edge">
<title>b7&#45;&#45;b7_1</title>
<path fill="none" stroke="#000000" d="M447.9594,-326.3903C458.4229,-362.3024 481.7694,-442.4305 492.2198,-478.2978"/>
</g>
<!-- b7_2 -->
<g id="node52" class="node">
<title>b7_2</title>
<ellipse fill="none" stroke="#000000" cx="359.1313" cy="-485.3252" rx="39.1887" ry="18"/>
<text text-anchor="middle" x="359.1313" y="-481.1252" font-family="Times,serif" font-size="14.00" fill="#000000">Monitor</text>
</g>
<!-- b7&#45;&#45;b7_2 -->
<g id="edge53" class="edge">
<title>b7&#45;&#45;b7_2</title>
<path fill="none" stroke="#000000" d="M434.391,-325.9888C418.4119,-359.8191 383.591,-433.5401 367.5411,-467.5203"/>
</g>
<!-- b7_3 -->
<g id="node53" class="node">
<title>b7_3</title>
<ellipse fill="none" stroke="#000000" cx="259.5317" cy="-377.2398" rx="39.6558" ry="18"/>
<text text-anchor="middle" x="259.5317" y="-373.0398" font-family="Times,serif" font-size="14.00" fill="#000000">Register</text>
</g>
<!-- b7&#45;&#45;b7_3 -->
<g id="edge54" class="edge">
<title>b7&#45;&#45;b7_3</title>
<path fill="none" stroke="#000000" d="M417.2403,-317.9506C384.0129,-330.4421 325.9257,-352.2795 290.2821,-365.6794"/>
</g>
<!-- b7_4 -->
<g id="node54" class="node">
<title>b7_4</title>
<ellipse fill="none" stroke="#000000" cx="259.0538" cy="-240.7958" rx="27.589" ry="18"/>
<text text-anchor="middle" x="259.0538" y="-236.5958" font-family="Times,serif" font-size="14.00" fill="#000000">Sync</text>
</g>
<!-- b7&#45;&#45;b7_4 -->
<g id="edge55" class="edge">
<title>b7&#45;&#45;b7_4</title>
<path fill="none" stroke="#000000" d="M417.1738,-298.9786C381.79,-285.9586 318.288,-262.592 283.4953,-249.7895"/>
</g>
<!-- b7_5 -->
<g id="node55" class="node">
<title>b7_5</title>
<ellipse fill="none" stroke="#000000" cx="347.008" cy="-137.6773" rx="38.7128" ry="18"/>
<text text-anchor="middle" x="347.008" y="-133.4773" font-family="Times,serif" font-size="14.00" fill="#000000">Binding</text>
</g>
<!-- b7&#45;&#45;b7_5 -->
<g id="edge56" class="edge">
<title>b7&#45;&#45;b7_5</title>
<path fill="none" stroke="#000000" d="M433.0074,-291.0684C414.7121,-258.4364 375.3043,-188.1474 356.88,-155.2852"/>
</g>
<!-- b7_6 -->
<g id="node56" class="node">
<title>b7_6</title>
<ellipse fill="none" stroke="#000000" cx="485.6655" cy="-117.4521" rx="32.8994" ry="18"/>
<text text-anchor="middle" x="485.6655" y="-113.2521" font-family="Times,serif" font-size="14.00" fill="#000000">Alarm</text>
</g>
<!-- b7&#45;&#45;b7_6 -->
<g id="edge57" class="edge">
<title>b7&#45;&#45;b7_6</title>
<path fill="none" stroke="#000000" d="M446.7516,-290.4137C454.9385,-254.0253 473.3998,-171.9697 481.6039,-135.5051"/>
</g>
<!-- b7_7 -->
<g id="node57" class="node">
<title>b7_7</title>
<ellipse fill="none" stroke="#000000" cx="595.3059" cy="-185.8542" rx="27" ry="18"/>
<text text-anchor="middle" x="595.3059" y="-181.6542" font-family="Times,serif" font-size="14.00" fill="#000000">RSS</text>
</g>
<!-- b7&#45;&#45;b7_7 -->
<g id="edge58" class="edge">
<title>b7&#45;&#45;b7_7</title>
<path fill="none" stroke="#000000" d="M460.8144,-293.8393C490.3406,-270.1323 548.4935,-223.4405 577.6965,-199.993"/>
</g>
<!-- b7_8 -->
<g id="node58" class="node">
<title>b7_8</title>
<ellipse fill="none" stroke="#000000" cx="638.3394" cy="-303.2664" rx="28.0651" ry="18"/>
<text text-anchor="middle" x="638.3394" y="-299.0664" font-family="Times,serif" font-size="14.00" fill="#000000">Door</text>
</g>
<!-- b7&#45;&#45;b7_8 -->
<g id="edge59" class="edge">
<title>b7&#45;&#45;b7_8</title>
<path fill="none" stroke="#000000" d="M472.8488,-307.5882C510.2541,-306.6113 573.558,-304.9582 610.0737,-304.0045"/>
</g>
<!-- b7_9 -->
<g id="node59" class="node">
<title>b7_9</title>
<ellipse fill="none" stroke="#000000" cx="601.4928" cy="-422.7647" rx="27" ry="18"/>
<text text-anchor="middle" x="601.4928" y="-418.5647" font-family="Times,serif" font-size="14.00" fill="#000000">Log</text>
</g>
<!-- b7&#45;&#45;b7_9 -->
<g id="edge60" class="edge">
<title>b7&#45;&#45;b7_9</title>
<path fill="none" stroke="#000000" d="M461.8633,-322.1733C492.547,-344.2783 552.3529,-387.3635 582.7651,-409.2729"/>
</g>
<!-- b8_1 -->
<g id="node61" class="node">
<title>b8_1</title>
<ellipse fill="none" stroke="#000000" cx="851.0792" cy="-336.8632" rx="30.988" ry="18"/>
<text text-anchor="middle" x="851.0792" y="-332.6632" font-family="Times,serif" font-size="14.00" fill="#000000">VOIP</text>
</g>
<!-- b8&#45;&#45;b8_1 -->
<g id="edge61" class="edge">
<title>b8&#45;&#45;b8_1</title>
<path fill="none" stroke="#000000" d="M925.0394,-203.9726C909.0098,-232.7743 876.9344,-290.4069 860.8083,-319.3821"/>
</g>
<!-- b8_2 -->
<g id="node62" class="node">
<title>b8_2</title>
<ellipse fill="none" stroke="#000000" cx="767.532" cy="-226.6688" rx="39.6558" ry="18"/>
<text text-anchor="middle" x="767.532" y="-222.4688" font-family="Times,serif" font-size="14.00" fill="#000000">Register</text>
</g>
<!-- b8&#45;&#45;b8_2 -->
<g id="edge62" class="edge">
<title>b8&#45;&#45;b8_2</title>
<path fill="none" stroke="#000000" d="M908.5149,-192.9899C880.0614,-199.787 834.38,-210.6997 802.7635,-218.2525"/>
</g>
<!-- b8_3 -->
<g id="node63" class="node">
<title>b8_3</title>
<ellipse fill="none" stroke="#000000" cx="790.6232" cy="-93.0689" rx="27.589" ry="18"/>
<text text-anchor="middle" x="790.6232" y="-88.8689" font-family="Times,serif" font-size="14.00" fill="#000000">Sync</text>
</g>
<!-- b8&#45;&#45;b8_3 -->
<g id="edge63" class="edge">
<title>b8&#45;&#45;b8_3</title>
<path fill="none" stroke="#000000" d="M914.9023,-173.9231C887.4806,-156.0829 838.1083,-123.962 810.5677,-106.0445"/>
</g>
<!-- b8_4 -->
<g id="node64" class="node">
<title>b8_4</title>
<ellipse fill="none" stroke="#000000" cx="902.4507" cy="-18" rx="38.7128" ry="18"/>
<text text-anchor="middle" x="902.4507" y="-13.8" font-family="Times,serif" font-size="14.00" fill="#000000">Binding</text>
</g>
<!-- b8&#45;&#45;b8_4 -->
<g id="edge64" class="edge">
<title>b8&#45;&#45;b8_4</title>
<path fill="none" stroke="#000000" d="M931.1799,-168.6935C924.9877,-136.2133 912.0431,-68.3152 905.869,-35.9297"/>
</g>
<!-- b8_5 -->
<g id="node65" class="node">
<title>b8_5</title>
<ellipse fill="none" stroke="#000000" cx="1038.0129" cy="-49.5556" rx="32.8994" ry="18"/>
<text text-anchor="middle" x="1038.0129" y="-45.3556" font-family="Times,serif" font-size="14.00" fill="#000000">Alarm</text>
</g>
<!-- b8&#45;&#45;b8_5 -->
<g id="edge65" class="edge">
<title>b8&#45;&#45;b8_5</title>
<path fill="none" stroke="#000000" d="M946.8891,-170.4759C966.6804,-144.213 1005.4549,-92.7597 1025.4402,-66.2394"/>
</g>
<!-- b8_6 -->
<g id="node66" class="node">
<title>b8_6</title>
<ellipse fill="none" stroke="#000000" cx="1104.2649" cy="-159.6571" rx="27" ry="18"/>
<text text-anchor="middle" x="1104.2649" y="-155.4571" font-family="Times,serif" font-size="14.00" fill="#000000">RSS</text>
</g>
<!-- b8&#45;&#45;b8_6 -->
<g id="edge66" class="edge">
<title>b8&#45;&#45;b8_6</title>
<path fill="none" stroke="#000000" d="M961.8788,-182.3996C993.8168,-177.2983 1046.3716,-168.904 1077.914,-163.8659"/>
</g>
<!-- b8_7 -->
<g id="node67" class="node">
<title>b8_7</title>
<ellipse fill="none" stroke="#000000" cx="1078.0833" cy="-281.2609" rx="28.0651" ry="18"/>
<text text-anchor="middle" x="1078.0833" y="-277.0609" font-family="Times,serif" font-size="14.00" fill="#000000">Door</text>
</g>
<!-- b8&#45;&#45;b8_7 -->
<g id="edge67" class="edge">
<title>b8&#45;&#45;b8_7</title>
<path fill="none" stroke="#000000" d="M954.2696,-199.6958C981.5886,-217.6928 1030.776,-250.0961 1058.2134,-268.1711"/>
</g>
<!-- b8_8 -->
<g id="node68" class="node">
<title>b8_8</title>
<ellipse fill="none" stroke="#000000" cx="976.6878" cy="-353.3158" rx="27" ry="18"/>
<text text-anchor="middle" x="976.6878" y="-349.1158" font-family="Times,serif" font-size="14.00" fill="#000000">Log</text>
</g>
<!-- b8&#45;&#45;b8_8 -->
<g id="edge68" class="edge">
<title>b8&#45;&#45;b8_8</title>
<path fill="none" stroke="#000000" d="M939.1246,-204.5781C947.1997,-236.5529 964.0572,-303.303 972.1549,-335.3671"/>
</g>
<!-- b9_1 -->
<g id="node70" class="node">
<title>b9_1</title>
<ellipse fill="none" stroke="#000000" cx="1204.0088" cy="-450.6174" rx="30.988" ry="18"/>
<text text-anchor="middle" x="1204.0088" y="-446.4174" font-family="Times,serif" font-size="14.00" fill="#000000">VOIP</text>
</g>
<!-- b9&#45;&#45;b9_1 -->
<g id="edge69" class="edge">
<title>b9&#45;&#45;b9_1</title>
<path fill="none" stroke="#000000" d="M1317.8555,-413.1236C1291.4137,-421.8319 1255.5861,-433.6312 1231.2338,-441.6513"/>
</g>
<!-- b9_2 -->
<g id="node71" class="node">
<title>b9_2</title>
<ellipse fill="none" stroke="#000000" cx="1219.1279" cy="-319.9895" rx="27" ry="18"/>
<text text-anchor="middle" x="1219.1279" y="-315.7895" font-family="Times,serif" font-size="14.00" fill="#000000">IPC</text>
</g>
<!-- b9&#45;&#45;b9_2 -->
<g id="edge70" class="edge">
<title>b9&#45;&#45;b9_2</title>
<path fill="none" stroke="#000000" d="M1327.9072,-386.4742C1302.4024,-370.8859 1263.1652,-346.9046 1239.4418,-332.4051"/>
</g>
<!-- b9_3 -->
<g id="node72" class="node">
<title>b9_3</title>
<ellipse fill="none" stroke="#000000" cx="1337.2456" cy="-245.837" rx="39.6558" ry="18"/>
<text text-anchor="middle" x="1337.2456" y="-241.637" font-family="Times,serif" font-size="14.00" fill="#000000">Register</text>
</g>
<!-- b9&#45;&#45;b9_3 -->
<g id="edge71" class="edge">
<title>b9&#45;&#45;b9_3</title>
<path fill="none" stroke="#000000" d="M1350.9165,-383.4632C1347.9343,-353.4414 1342.0144,-293.8444 1339.0398,-263.8988"/>
</g>
<!-- b9_4 -->
<g id="node73" class="node">
<title>b9_4</title>
<ellipse fill="none" stroke="#000000" cx="1468.1804" cy="-295.8877" rx="27.589" ry="18"/>
<text text-anchor="middle" x="1468.1804" y="-291.6877" font-family="Times,serif" font-size="14.00" fill="#000000">Sync</text>
</g>
<!-- b9&#45;&#45;b9_4 -->
<g id="edge72" class="edge">
<title>b9&#45;&#45;b9_4</title>
<path fill="none" stroke="#000000" d="M1370.7625,-385.1169C1393.0874,-364.6685 1430.7608,-330.1619 1452.1265,-310.5922"/>
</g>
<!-- b9_5 -->
<g id="node74" class="node">
<title>b9_5</title>
<ellipse fill="none" stroke="#000000" cx="1506.7493" cy="-429.7474" rx="38.7128" ry="18"/>
<text text-anchor="middle" x="1506.7493" y="-425.5474" font-family="Times,serif" font-size="14.00" fill="#000000">Binding</text>
</g>
<!-- b9&#45;&#45;b9_5 -->
<g id="edge73" class="edge">
<title>b9&#45;&#45;b9_5</title>
<path fill="none" stroke="#000000" d="M1393.9986,-409.1729C1417.8803,-413.5308 1447.653,-418.9636 1470.6063,-423.1521"/>
</g>
<!-- b9_6 -->
<g id="node75" class="node">
<title>b9_6</title>
<ellipse fill="none" stroke="#000000" cx="1422.9517" cy="-541.577" rx="28.0651" ry="18"/>
<text text-anchor="middle" x="1422.9517" y="-537.377" font-family="Times,serif" font-size="14.00" fill="#000000">Door</text>
</g>
<!-- b9&#45;&#45;b9_6 -->
<g id="edge74" class="edge">
<title>b9&#45;&#45;b9_6</title>
<path fill="none" stroke="#000000" d="M1361.6167,-419.3638C1375.1257,-446.2812 1400.6633,-497.1663 1414.1293,-523.9979"/>
</g>
<!-- b9_7 -->
<g id="node76" class="node">
<title>b9_7</title>
<ellipse fill="none" stroke="#000000" cx="1293.791" cy="-546.6976" rx="27" ry="18"/>
<text text-anchor="middle" x="1293.791" y="-542.4976" font-family="Times,serif" font-size="14.00" fill="#000000">Log</text>
</g>
<!-- b9&#45;&#45;b9_7 -->
<g id="edge75" class="edge">
<title>b9&#45;&#45;b9_7</title>
<path fill="none" stroke="#000000" d="M1345.496,-419.4276C1334.1241,-447.4192 1312.1861,-501.4187 1300.8922,-529.2184"/>
</g>
</g>
</svg>
