<?xml version="1.0" encoding="UTF-8" standalone="no"?>
<!DOCTYPE svg PUBLIC "-//W3C//DTD SVG 1.1//EN"
 "http://www.w3.org/Graphics/SVG/1.1/DTD/svg11.dtd">
<!-- Generated by graphviz version 2.40.1 (20161225.0304)
 -->
<!-- Title: cloud Pages: 1 -->
<svg width="11455pt" height="10816pt"
 viewBox="0.00 0.00 11454.59 10815.56" xmlns="http://www.w3.org/2000/svg" xmlns:xlink="http://www.w3.org/1999/xlink">
<g id="graph0" class="graph" transform="scale(1 1) rotate(0) translate(4 10811.5594)">
<title>cloud</title>
<polygon fill="#ffffff" stroke="transparent" points="-4,4 -4,-10811.5594 11450.5864,-10811.5594 11450.5864,4 -4,4"/>
<!-- a -->
<g id="node1" class="node">
<title>a</title>
<ellipse fill="none" stroke="#000000" cx="5484.1935" cy="-5442.7577" rx="357.1281" ry="147.1565"/>
<text text-anchor="middle" x="5484.1935" y="-5382.7577" font-family="Times,serif" font-size="200.00" fill="#000000">Cloud</text>
</g>
<!-- b1 -->
<g id="node2" class="node">
<title>b1</title>
<ellipse fill="none" stroke="#000000" cx="9823.2704" cy="-5442.7577" rx="380.3083" ry="147.1565"/>
<text text-anchor="middle" x="9823.2704" y="-5382.7577" font-family="Times,serif" font-size="200.00" fill="#000000">Server</text>
</g>
<!-- a&#45;&#45;b1 -->
<g id="edge1" class="edge">
<title>a&#45;&#45;b1</title>
<path fill="none" stroke="#000000" d="M5841.5837,-5442.7577C6649.8849,-5442.7577 8612.5471,-5442.7577 9442.5549,-5442.7577"/>
</g>
<!-- b2 -->
<g id="node13" class="node">
<title>b2</title>
<ellipse fill="none" stroke="#000000" cx="8570.8671" cy="-8492.3535" rx="270.9949" ry="147.1565"/>
<text text-anchor="middle" x="8570.8671" y="-8432.3535" font-family="Times,serif" font-size="200.00" fill="#000000">APP</text>
</g>
<!-- a&#45;&#45;b2 -->
<g id="edge2" class="edge">
<title>a&#45;&#45;b2</title>
<path fill="none" stroke="#000000" d="M5621.8107,-5578.7218C6135.6913,-6086.4297 7938.3796,-7867.4637 8440.292,-8363.347"/>
</g>
<!-- b3 -->
<g id="node23" class="node">
<title>b3</title>
<ellipse fill="none" stroke="#000000" cx="5839.1558" cy="-9767.2912" rx="286.3449" ry="147.1565"/>
<text text-anchor="middle" x="5839.1558" y="-9707.2912" font-family="Times,serif" font-size="200.00" fill="#000000">ACP</text>
</g>
<!-- a&#45;&#45;b3 -->
<g id="edge3" class="edge">
<title>a&#45;&#45;b3</title>
<path fill="none" stroke="#000000" d="M5496.2838,-5590.0549C5550.7115,-6253.1514 5772.702,-8957.6795 5827.0865,-9620.2501"/>
</g>
<!-- b4 -->
<g id="node31" class="node">
<title>b4</title>
<ellipse fill="none" stroke="#000000" cx="3165.2081" cy="-9110.1676" rx="301.9189" ry="147.1565"/>
<text text-anchor="middle" x="3165.2081" y="-9050.1676" font-family="Times,serif" font-size="200.00" fill="#000000">ADT</text>
</g>
<!-- a&#45;&#45;b4 -->
<g id="edge4" class="edge">
<title>a&#45;&#45;b4</title>
<path fill="none" stroke="#000000" d="M5394.1758,-5585.1182C5024.1809,-6170.2547 3622.7311,-8386.6079 3254.3566,-8969.1819"/>
</g>
<!-- b5 -->
<g id="node38" class="node">
<title>b5</title>
<ellipse fill="none" stroke="#000000" cx="1469.8894" cy="-7089.8616" rx="231.2738" ry="147.1565"/>
<text text-anchor="middle" x="1469.8894" y="-7029.8616" font-family="Times,serif" font-size="200.00" fill="#000000">IPC</text>
</g>
<!-- a&#45;&#45;b5 -->
<g id="edge5" class="edge">
<title>a&#45;&#45;b5</title>
<path fill="none" stroke="#000000" d="M5231.1793,-5546.5717C4488.6286,-5851.2467 2326.1616,-6738.5257 1664.5231,-7010.0017"/>
</g>
<!-- b6 -->
<g id="node44" class="node">
<title>b6</title>
<ellipse fill="none" stroke="#000000" cx="1254.1436" cy="-4476.1831" rx="286.3449" ry="147.1565"/>
<text text-anchor="middle" x="1254.1436" y="-4416.1831" font-family="Times,serif" font-size="200.00" fill="#000000">SAC</text>
</g>
<!-- a&#45;&#45;b6 -->
<g id="edge6" class="edge">
<title>a&#45;&#45;b6</title>
<path fill="none" stroke="#000000" d="M5171.8598,-5371.3889C4371.4821,-5188.501 2257.9431,-4705.5532 1516.0606,-4536.0316"/>
</g>
<!-- b7 -->
<g id="node50" class="node">
<title>b7</title>
<ellipse fill="none" stroke="#000000" cx="2851.0565" cy="-1993.964" rx="325.6515" ry="147.1565"/>
<text text-anchor="middle" x="2851.0565" y="-1933.964" font-family="Times,serif" font-size="200.00" fill="#000000">DMT</text>
</g>
<!-- a&#45;&#45;b7 -->
<g id="edge7" class="edge">
<title>a&#45;&#45;b7</title>
<path fill="none" stroke="#000000" d="M5376.8877,-5302.2122C4950.8618,-4744.2179 3381.4335,-2688.6338 2957.3051,-2133.1248"/>
</g>
<!-- b8 -->
<g id="node60" class="node">
<title>b8</title>
<ellipse fill="none" stroke="#000000" cx="5795.856" cy="-1114.8882" rx="294.4511" ry="147.1565"/>
<text text-anchor="middle" x="5795.856" y="-1054.8882" font-family="Times,serif" font-size="200.00" fill="#000000">DVP</text>
</g>
<!-- a&#45;&#45;b8 -->
<g id="edge8" class="edge">
<title>a&#45;&#45;b8</title>
<path fill="none" stroke="#000000" d="M5494.7865,-5295.6589C5542.5353,-4632.6005 5737.4934,-1925.334 5785.2561,-1262.0816"/>
</g>
<!-- b9 -->
<g id="node69" class="node">
<title>b9</title>
<ellipse fill="none" stroke="#000000" cx="8577.598" cy="-2399.9899" rx="569.3923" ry="147.1565"/>
<text text-anchor="middle" x="8577.598" y="-2339.9899" font-family="Times,serif" font-size="200.00" fill="#000000">AV&#45;LINK</text>
</g>
<!-- a&#45;&#45;b9 -->
<g id="edge9" class="edge">
<title>a&#45;&#45;b9</title>
<path fill="none" stroke="#000000" d="M5622.3628,-5306.8501C6133.0201,-4804.5519 7911.1084,-3055.5696 8432.7127,-2542.5035"/>
</g>
<!-- b1_1 -->
<g id="node3" class="node">
<title>b1_1</title>
<ellipse fill="none" stroke="#000000" cx="8655.8493" cy="-5120.4679" rx="341.1399" ry="147.1565"/>
<text text-anchor="middle" x="8655.8493" y="-5060.4679" font-family="Times,serif" font-size="200.00" fill="#000000">VOIP</text>
</g>
<!-- b1&#45;&#45;b1_1 -->
<g id="edge10" class="edge">
<title>b1&#45;&#45;b1_1</title>
<path fill="none" stroke="#000000" d="M9513.4879,-5357.2361C9336.6767,-5308.4239 9116.4985,-5247.6393 8943.5052,-5199.881"/>
</g>
<!-- b1_2 -->
<g id="node4" class="node">
<title>b1_2</title>
<ellipse fill="none" stroke="#000000" cx="8980.9693" cy="-4572.5441" rx="231.2738" ry="147.1565"/>
<text text-anchor="middle" x="8980.9693" y="-4512.5441" font-family="Times,serif" font-size="200.00" fill="#000000">IPC</text>
</g>
<!-- b1&#45;&#45;b1_2 -->
<g id="edge11" class="edge">
<title>b1&#45;&#45;b1_2</title>
<path fill="none" stroke="#000000" d="M9689.8053,-5304.8698C9528.2594,-5137.9705 9258.5375,-4859.3105 9102.5344,-4698.1377"/>
</g>
<!-- b1_3 -->
<g id="node5" class="node">
<title>b1_3</title>
<ellipse fill="none" stroke="#000000" cx="9678.1589" cy="-4240.3912" rx="482.7063" ry="147.1565"/>
<text text-anchor="middle" x="9678.1589" y="-4180.3912" font-family="Times,serif" font-size="200.00" fill="#000000">Register</text>
</g>
<!-- b1&#45;&#45;b1_3 -->
<g id="edge12" class="edge">
<title>b1&#45;&#45;b1_3</title>
<path fill="none" stroke="#000000" d="M9805.5131,-5295.6249C9777.6193,-5064.5017 9723.8447,-4618.9355 9695.9376,-4387.7022"/>
</g>
<!-- b1_4 -->
<g id="node6" class="node">
<title>b1_4</title>
<ellipse fill="none" stroke="#000000" cx="10487.7013" cy="-4430.1995" rx="294.3129" ry="147.1565"/>
<text text-anchor="middle" x="10487.7013" y="-4370.1995" font-family="Times,serif" font-size="200.00" fill="#000000">Sync</text>
</g>
<!-- b1&#45;&#45;b1_4 -->
<g id="edge13" class="edge">
<title>b1&#45;&#45;b1_4</title>
<path fill="none" stroke="#000000" d="M9916.8823,-5300.098C10044.0003,-5106.3767 10269.7863,-4762.2906 10395.939,-4570.0405"/>
</g>
<!-- b1_5 -->
<g id="node7" class="node">
<title>b1_5</title>
<ellipse fill="none" stroke="#000000" cx="10979.5202" cy="-5082.4399" rx="467.1323" ry="147.1565"/>
<text text-anchor="middle" x="10979.5202" y="-5022.4399" font-family="Times,serif" font-size="200.00" fill="#000000">Binding</text>
</g>
<!-- b1&#45;&#45;b1_5 -->
<g id="edge14" class="edge">
<title>b1&#45;&#45;b1_5</title>
<path fill="none" stroke="#000000" d="M10119.532,-5350.4348C10280.7857,-5300.184 10480.7744,-5237.8622 10647.3051,-5185.9669"/>
</g>
<!-- b1_6 -->
<g id="node8" class="node">
<title>b1_6</title>
<ellipse fill="none" stroke="#000000" cx="10913.4378" cy="-5970.2782" rx="372.7022" ry="147.1565"/>
<text text-anchor="middle" x="10913.4378" y="-5910.2782" font-family="Times,serif" font-size="200.00" fill="#000000">Alarm</text>
</g>
<!-- b1&#45;&#45;b1_6 -->
<g id="edge15" class="edge">
<title>b1&#45;&#45;b1_6</title>
<path fill="none" stroke="#000000" d="M10060.8287,-5557.7097C10243.7477,-5646.2223 10495.3413,-5767.9657 10677.7818,-5856.2468"/>
</g>
<!-- b1_7 -->
<g id="node9" class="node">
<title>b1_7</title>
<ellipse fill="none" stroke="#000000" cx="10441.6708" cy="-6484.0664" rx="262.8886" ry="147.1565"/>
<text text-anchor="middle" x="10441.6708" y="-6424.0664" font-family="Times,serif" font-size="200.00" fill="#000000">RSS</text>
</g>
<!-- b1&#45;&#45;b1_7 -->
<g id="edge16" class="edge">
<title>b1&#45;&#45;b1_7</title>
<path fill="none" stroke="#000000" d="M9908.445,-5586.1811C10027.1799,-5786.1158 10241.066,-6146.2731 10358.6419,-6344.2562"/>
</g>
<!-- b1_8 -->
<g id="node10" class="node">
<title>b1_8</title>
<ellipse fill="none" stroke="#000000" cx="9686.0458" cy="-6646.05" rx="451.6964" ry="147.1565"/>
<text text-anchor="middle" x="9686.0458" y="-6586.05" font-family="Times,serif" font-size="200.00" fill="#000000">Web UI</text>
</g>
<!-- b1&#45;&#45;b1_8 -->
<g id="edge17" class="edge">
<title>b1&#45;&#45;b1_8</title>
<path fill="none" stroke="#000000" d="M9806.5126,-5589.703C9780.1299,-5821.0468 9729.2034,-6267.6105 9702.8142,-6499.0119"/>
</g>
<!-- b1_9 -->
<g id="node11" class="node">
<title>b1_9</title>
<ellipse fill="none" stroke="#000000" cx="8958.5343" cy="-6290.6813" rx="301.9189" ry="147.1565"/>
<text text-anchor="middle" x="8958.5343" y="-6230.6813" font-family="Times,serif" font-size="200.00" fill="#000000">Door</text>
</g>
<!-- b1&#45;&#45;b1_9 -->
<g id="edge18" class="edge">
<title>b1&#45;&#45;b1_9</title>
<path fill="none" stroke="#000000" d="M9683.3745,-5579.9337C9520.494,-5739.6475 9253.3653,-6001.5825 9092.8926,-6158.9353"/>
</g>
<!-- b1_10 -->
<g id="node12" class="node">
<title>b1_10</title>
<ellipse fill="none" stroke="#000000" cx="8655.8493" cy="-5765.0476" rx="239.2418" ry="147.1565"/>
<text text-anchor="middle" x="8655.8493" y="-5705.0476" font-family="Times,serif" font-size="200.00" fill="#000000">Log</text>
</g>
<!-- b1&#45;&#45;b1_10 -->
<g id="edge19" class="edge">
<title>b1&#45;&#45;b1_10</title>
<path fill="none" stroke="#000000" d="M9513.4879,-5528.2794C9312.021,-5583.8983 9054.2493,-5655.0613 8874.1336,-5704.7858"/>
</g>
<!-- b2_1 -->
<g id="node14" class="node">
<title>b2_1</title>
<ellipse fill="none" stroke="#000000" cx="8023.9027" cy="-7499.6823" rx="341.1399" ry="147.1565"/>
<text text-anchor="middle" x="8023.9027" y="-7439.6823" font-family="Times,serif" font-size="200.00" fill="#000000">VOIP</text>
</g>
<!-- b2&#45;&#45;b2_1 -->
<g id="edge20" class="edge">
<title>b2&#45;&#45;b2_1</title>
<path fill="none" stroke="#000000" d="M8493.2262,-8351.4452C8389.5966,-8163.3706 8207.0564,-7832.0831 8102.7956,-7642.863"/>
</g>
<!-- b2_2 -->
<g id="node15" class="node">
<title>b2_2</title>
<ellipse fill="none" stroke="#000000" cx="8884.1356" cy="-7403.1203" rx="474.7384" ry="147.1565"/>
<text text-anchor="middle" x="8884.1356" y="-7343.1203" font-family="Times,serif" font-size="200.00" fill="#000000">Monitor</text>
</g>
<!-- b2&#45;&#45;b2_2 -->
<g id="edge21" class="edge">
<title>b2&#45;&#45;b2_2</title>
<path fill="none" stroke="#000000" d="M8612.7097,-8346.8669C8672.5379,-8138.8444 8781.9108,-7758.5555 8841.9356,-7549.8495"/>
</g>
<!-- b2_3 -->
<g id="node16" class="node">
<title>b2_3</title>
<ellipse fill="none" stroke="#000000" cx="9622.3767" cy="-8069.3954" rx="482.7063" ry="147.1565"/>
<text text-anchor="middle" x="9622.3767" y="-8009.3954" font-family="Times,serif" font-size="200.00" fill="#000000">Register</text>
</g>
<!-- b2&#45;&#45;b2_3 -->
<g id="edge22" class="edge">
<title>b2&#45;&#45;b2_3</title>
<path fill="none" stroke="#000000" d="M8788.7405,-8404.7163C8945.5947,-8341.6234 9158.8991,-8255.8241 9330.4738,-8186.8101"/>
</g>
<!-- b2_4 -->
<g id="node17" class="node">
<title>b2_4</title>
<ellipse fill="none" stroke="#000000" cx="9629.0092" cy="-8898.4341" rx="294.3129" ry="147.1565"/>
<text text-anchor="middle" x="9629.0092" y="-8838.4341" font-family="Times,serif" font-size="200.00" fill="#000000">Sync</text>
</g>
<!-- b2&#45;&#45;b2_4 -->
<g id="edge23" class="edge">
<title>b2&#45;&#45;b2_4</title>
<path fill="none" stroke="#000000" d="M8792.044,-8577.234C8968.6501,-8645.0097 9215.4566,-8739.726 9395.2825,-8808.7374"/>
</g>
<!-- b2_5 -->
<g id="node18" class="node">
<title>b2_5</title>
<ellipse fill="none" stroke="#000000" cx="9083.3538" cy="-9503.2559" rx="467.1323" ry="147.1565"/>
<text text-anchor="middle" x="9083.3538" y="-9443.2559" font-family="Times,serif" font-size="200.00" fill="#000000">Binding</text>
</g>
<!-- b2&#45;&#45;b2_5 -->
<g id="edge24" class="edge">
<title>b2&#45;&#45;b2_5</title>
<path fill="none" stroke="#000000" d="M8642.8009,-8634.2462C8739.807,-8825.5949 8911.6598,-9164.582 9009.5945,-9357.7625"/>
</g>
<!-- b2_6 -->
<g id="node19" class="node">
<title>b2_6</title>
<ellipse fill="none" stroke="#000000" cx="8198.0578" cy="-9562.671" rx="372.7022" ry="147.1565"/>
<text text-anchor="middle" x="8198.0578" y="-9502.671" font-family="Times,serif" font-size="200.00" fill="#000000">Alarm</text>
</g>
<!-- b2&#45;&#45;b2_6 -->
<g id="edge25" class="edge">
<title>b2&#45;&#45;b2_6</title>
<path fill="none" stroke="#000000" d="M8520.4915,-8636.9794C8449.3578,-8841.2008 8320.2107,-9211.9758 8248.8509,-9416.8465"/>
</g>
<!-- b2_7 -->
<g id="node20" class="node">
<title>b2_7</title>
<ellipse fill="none" stroke="#000000" cx="7642.764" cy="-9142.8847" rx="262.8886" ry="147.1565"/>
<text text-anchor="middle" x="7642.764" y="-9082.8847" font-family="Times,serif" font-size="200.00" fill="#000000">RSS</text>
</g>
<!-- b2&#45;&#45;b2_7 -->
<g id="edge26" class="edge">
<title>b2&#45;&#45;b2_7</title>
<path fill="none" stroke="#000000" d="M8404.9408,-8608.6554C8235.8778,-8727.156 7975.2641,-8909.8269 7806.864,-9027.8628"/>
</g>
<!-- b2_8 -->
<g id="node21" class="node">
<title>b2_8</title>
<ellipse fill="none" stroke="#000000" cx="7438.8626" cy="-8548.3196" rx="301.9189" ry="147.1565"/>
<text text-anchor="middle" x="7438.8626" y="-8488.3196" font-family="Times,serif" font-size="200.00" fill="#000000">Door</text>
</g>
<!-- b2&#45;&#45;b2_8 -->
<g id="edge27" class="edge">
<title>b2&#45;&#45;b2_8</title>
<path fill="none" stroke="#000000" d="M8301.162,-8505.6877C8132.1154,-8514.0453 7913.9604,-8524.8309 7739.376,-8533.4623"/>
</g>
<!-- b2_9 -->
<g id="node22" class="node">
<title>b2_9</title>
<ellipse fill="none" stroke="#000000" cx="7571.6586" cy="-7957.4248" rx="239.2418" ry="147.1565"/>
<text text-anchor="middle" x="7571.6586" y="-7897.4248" font-family="Times,serif" font-size="200.00" fill="#000000">Log</text>
</g>
<!-- b2&#45;&#45;b2_9 -->
<g id="edge28" class="edge">
<title>b2&#45;&#45;b2_9</title>
<path fill="none" stroke="#000000" d="M8377.9137,-8389.0554C8197.1145,-8292.2642 7928.9438,-8148.6983 7752.2634,-8054.112"/>
</g>
<!-- b3_1 -->
<g id="node24" class="node">
<title>b3_1</title>
<ellipse fill="none" stroke="#000000" cx="6087.7841" cy="-8893.819" rx="341.1399" ry="147.1565"/>
<text text-anchor="middle" x="6087.7841" y="-8833.819" font-family="Times,serif" font-size="200.00" fill="#000000">VOIP</text>
</g>
<!-- b3&#45;&#45;b3_1 -->
<g id="edge29" class="edge">
<title>b3&#45;&#45;b3_1</title>
<path fill="none" stroke="#000000" d="M5880.6306,-9621.5834C5926.5692,-9460.1934 6000.2061,-9201.4949 6046.1919,-9039.9393"/>
</g>
<!-- b3_2 -->
<g id="node25" class="node">
<title>b3_2</title>
<ellipse fill="none" stroke="#000000" cx="6702.502" cy="-9485.5057" rx="474.7384" ry="147.1565"/>
<text text-anchor="middle" x="6702.502" y="-9425.5057" font-family="Times,serif" font-size="200.00" fill="#000000">Monitor</text>
</g>
<!-- b3&#45;&#45;b3_2 -->
<g id="edge30" class="edge">
<title>b3&#45;&#45;b3_2</title>
<path fill="none" stroke="#000000" d="M6081.0811,-9688.3298C6172.3651,-9658.5359 6277.7821,-9624.1291 6375.5676,-9592.2131"/>
</g>
<!-- b3_3 -->
<g id="node26" class="node">
<title>b3_3</title>
<ellipse fill="none" stroke="#000000" cx="6459.999" cy="-10430.1061" rx="482.7063" ry="147.1565"/>
<text text-anchor="middle" x="6459.999" y="-10370.1061" font-family="Times,serif" font-size="200.00" fill="#000000">Register</text>
</g>
<!-- b3&#45;&#45;b3_3 -->
<g id="edge31" class="edge">
<title>b3&#45;&#45;b3_3</title>
<path fill="none" stroke="#000000" d="M5963.673,-9900.2263C6069.0704,-10012.749 6219.7351,-10173.5994 6327.3729,-10288.5138"/>
</g>
<!-- b3_4 -->
<g id="node27" class="node">
<title>b3_4</title>
<ellipse fill="none" stroke="#000000" cx="5674.8953" cy="-10660.4812" rx="294.3129" ry="147.1565"/>
<text text-anchor="middle" x="5674.8953" y="-10600.4812" font-family="Times,serif" font-size="200.00" fill="#000000">Sync</text>
</g>
<!-- b3&#45;&#45;b3_4 -->
<g id="edge32" class="edge">
<title>b3&#45;&#45;b3_4</title>
<path fill="none" stroke="#000000" d="M5812.2155,-9913.7832C5781.7251,-10079.5791 5732.3469,-10348.0802 5701.8504,-10513.9092"/>
</g>
<!-- b3_5 -->
<g id="node28" class="node">
<title>b3_5</title>
<ellipse fill="none" stroke="#000000" cx="5030.0587" cy="-10179.7614" rx="467.1323" ry="147.1565"/>
<text text-anchor="middle" x="5030.0587" y="-10119.7614" font-family="Times,serif" font-size="200.00" fill="#000000">Binding</text>
</g>
<!-- b3&#45;&#45;b3_5 -->
<g id="edge33" class="edge">
<title>b3&#45;&#45;b3_5</title>
<path fill="none" stroke="#000000" d="M5635.7699,-9870.9755C5526.465,-9926.6981 5390.8787,-9995.8187 5275.7165,-10054.5274"/>
</g>
<!-- b3_6 -->
<g id="node29" class="node">
<title>b3_6</title>
<ellipse fill="none" stroke="#000000" cx="5023.2314" cy="-9368.4967" rx="301.9189" ry="147.1565"/>
<text text-anchor="middle" x="5023.2314" y="-9308.4967" font-family="Times,serif" font-size="200.00" fill="#000000">Door</text>
</g>
<!-- b3&#45;&#45;b3_6 -->
<g id="edge34" class="edge">
<title>b3&#45;&#45;b3_6</title>
<path fill="none" stroke="#000000" d="M5631.6809,-9665.8849C5510.6966,-9606.7522 5358.4052,-9532.3176 5236.4494,-9472.71"/>
</g>
<!-- b3_7 -->
<g id="node30" class="node">
<title>b3_7</title>
<ellipse fill="none" stroke="#000000" cx="5451.4238" cy="-8946.0521" rx="239.2418" ry="147.1565"/>
<text text-anchor="middle" x="5451.4238" y="-8886.0521" font-family="Times,serif" font-size="200.00" fill="#000000">Log</text>
</g>
<!-- b3&#45;&#45;b3_7 -->
<g id="edge35" class="edge">
<title>b3&#45;&#45;b3_7</title>
<path fill="none" stroke="#000000" d="M5771.6181,-9624.2423C5700.4525,-9473.5093 5589.0599,-9237.5735 5518.1877,-9087.4618"/>
</g>
<!-- b4_1 -->
<g id="node32" class="node">
<title>b4_1</title>
<ellipse fill="none" stroke="#000000" cx="3891.7334" cy="-8656.4491" rx="341.1399" ry="147.1565"/>
<text text-anchor="middle" x="3891.7334" y="-8596.4491" font-family="Times,serif" font-size="200.00" fill="#000000">VOIP</text>
</g>
<!-- b4&#45;&#45;b4_1 -->
<g id="edge36" class="edge">
<title>b4&#45;&#45;b4_1</title>
<path fill="none" stroke="#000000" d="M3351.363,-8993.913C3457.5211,-8927.6168 3590.3964,-8844.6355 3697.8182,-8777.5501"/>
</g>
<!-- b4_2 -->
<g id="node33" class="node">
<title>b4_2</title>
<ellipse fill="none" stroke="#000000" cx="3860.6381" cy="-9610.2443" rx="482.7063" ry="147.1565"/>
<text text-anchor="middle" x="3860.6381" y="-9550.2443" font-family="Times,serif" font-size="200.00" fill="#000000">Register</text>
</g>
<!-- b4&#45;&#45;b4_2 -->
<g id="edge37" class="edge">
<title>b4&#45;&#45;b4_2</title>
<path fill="none" stroke="#000000" d="M3334.8846,-9232.1803C3436.9127,-9305.5476 3566.9475,-9399.0543 3672.1678,-9474.7172"/>
</g>
<!-- b4_3 -->
<g id="node34" class="node">
<title>b4_3</title>
<ellipse fill="none" stroke="#000000" cx="3012.5051" cy="-9953.0088" rx="294.3129" ry="147.1565"/>
<text text-anchor="middle" x="3012.5051" y="-9893.0088" font-family="Times,serif" font-size="200.00" fill="#000000">Sync</text>
</g>
<!-- b4&#45;&#45;b4_3 -->
<g id="edge38" class="edge">
<title>b4&#45;&#45;b4_3</title>
<path fill="none" stroke="#000000" d="M3138.6093,-9256.9793C3110.6671,-9411.2056 3066.9786,-9652.3435 3039.0549,-9806.4679"/>
</g>
<!-- b4_4 -->
<g id="node35" class="node">
<title>b4_4</title>
<ellipse fill="none" stroke="#000000" cx="2342.7412" cy="-9349.4324" rx="467.1323" ry="147.1565"/>
<text text-anchor="middle" x="2342.7412" y="-9289.4324" font-family="Times,serif" font-size="200.00" fill="#000000">Binding</text>
</g>
<!-- b4&#45;&#45;b4_4 -->
<g id="edge39" class="edge">
<title>b4&#45;&#45;b4_4</title>
<path fill="none" stroke="#000000" d="M2905.8212,-9185.6262C2836.0249,-9205.9307 2759.4393,-9228.2103 2685.8478,-9249.6189"/>
</g>
<!-- b4_5 -->
<g id="node36" class="node">
<title>b4_5</title>
<ellipse fill="none" stroke="#000000" cx="2589.9713" cy="-8475.5007" rx="301.9189" ry="147.1565"/>
<text text-anchor="middle" x="2589.9713" y="-8415.5007" font-family="Times,serif" font-size="200.00" fill="#000000">Door</text>
</g>
<!-- b4&#45;&#45;b4_5 -->
<g id="edge40" class="edge">
<title>b4&#45;&#45;b4_5</title>
<path fill="none" stroke="#000000" d="M3043.2152,-8975.5711C2945.678,-8867.9569 2809.5917,-8717.811 2712.0357,-8610.1761"/>
</g>
<!-- b4_6 -->
<g id="node37" class="node">
<title>b4_6</title>
<ellipse fill="none" stroke="#000000" cx="3263.6165" cy="-8259.2767" rx="239.2418" ry="147.1565"/>
<text text-anchor="middle" x="3263.6165" y="-8199.2767" font-family="Times,serif" font-size="200.00" fill="#000000">Log</text>
</g>
<!-- b4&#45;&#45;b4_6 -->
<g id="edge41" class="edge">
<title>b4&#45;&#45;b4_6</title>
<path fill="none" stroke="#000000" d="M3182.2372,-8962.9251C3200.2809,-8806.9099 3228.6042,-8562.0116 3246.6313,-8406.1404"/>
</g>
<!-- b5_1 -->
<g id="node39" class="node">
<title>b5_1</title>
<ellipse fill="none" stroke="#000000" cx="2232.618" cy="-7279.6654" rx="482.7063" ry="147.1565"/>
<text text-anchor="middle" x="2232.618" y="-7219.6654" font-family="Times,serif" font-size="200.00" fill="#000000">Register</text>
</g>
<!-- b5&#45;&#45;b5_1 -->
<g id="edge42" class="edge">
<title>b5&#45;&#45;b5_1</title>
<path fill="none" stroke="#000000" d="M1685.3984,-7143.4907C1739.5827,-7156.9743 1799.3145,-7171.8385 1858.8014,-7186.6417"/>
</g>
<!-- b5_2 -->
<g id="node40" class="node">
<title>b5_2</title>
<ellipse fill="none" stroke="#000000" cx="1462.3197" cy="-7875.8152" rx="294.3129" ry="147.1565"/>
<text text-anchor="middle" x="1462.3197" y="-7815.8152" font-family="Times,serif" font-size="200.00" fill="#000000">Sync</text>
</g>
<!-- b5&#45;&#45;b5_2 -->
<g id="edge43" class="edge">
<title>b5&#45;&#45;b5_2</title>
<path fill="none" stroke="#000000" d="M1468.4701,-7237.2322C1467.1173,-7377.6905 1465.0916,-7588.0198 1463.7389,-7728.4698"/>
</g>
<!-- b5_3 -->
<g id="node41" class="node">
<title>b5_3</title>
<ellipse fill="none" stroke="#000000" cx="707.2569" cy="-7280.051" rx="467.1323" ry="147.1565"/>
<text text-anchor="middle" x="707.2569" y="-7220.051" font-family="Times,serif" font-size="200.00" fill="#000000">Binding</text>
</g>
<!-- b5&#45;&#45;b5_3 -->
<g id="edge44" class="edge">
<title>b5&#45;&#45;b5_3</title>
<path fill="none" stroke="#000000" d="M1254.4075,-7143.5996C1197.9177,-7157.6874 1135.3973,-7173.2791 1073.4119,-7188.7373"/>
</g>
<!-- b5_4 -->
<g id="node42" class="node">
<title>b5_4</title>
<ellipse fill="none" stroke="#000000" cx="1101.0203" cy="-6395.804" rx="301.9189" ry="147.1565"/>
<text text-anchor="middle" x="1101.0203" y="-6335.804" font-family="Times,serif" font-size="200.00" fill="#000000">Door</text>
</g>
<!-- b5&#45;&#45;b5_4 -->
<g id="edge45" class="edge">
<title>b5&#45;&#45;b5_4</title>
<path fill="none" stroke="#000000" d="M1395.687,-6950.2436C1332.0989,-6830.5973 1240.898,-6658.9954 1176.8457,-6538.4758"/>
</g>
<!-- b5_5 -->
<g id="node43" class="node">
<title>b5_5</title>
<ellipse fill="none" stroke="#000000" cx="1879.4954" cy="-6419.0387" rx="239.2418" ry="147.1565"/>
<text text-anchor="middle" x="1879.4954" y="-6359.0387" font-family="Times,serif" font-size="200.00" fill="#000000">Log</text>
</g>
<!-- b5&#45;&#45;b5_5 -->
<g id="edge46" class="edge">
<title>b5&#45;&#45;b5_5</title>
<path fill="none" stroke="#000000" d="M1553.7677,-6952.4918C1624.335,-6836.9219 1724.7435,-6672.48 1795.3781,-6556.7999"/>
</g>
<!-- b6_1 -->
<g id="node45" class="node">
<title>b6_1</title>
<ellipse fill="none" stroke="#000000" cx="1804.4023" cy="-5112.2172" rx="482.7063" ry="147.1565"/>
<text text-anchor="middle" x="1804.4023" y="-5052.2172" font-family="Times,serif" font-size="200.00" fill="#000000">Register</text>
</g>
<!-- b6&#45;&#45;b6_1 -->
<g id="edge47" class="edge">
<title>b6&#45;&#45;b6_1</title>
<path fill="none" stroke="#000000" d="M1370.503,-4610.6808C1461.7308,-4716.1294 1588.3646,-4862.5032 1681.2837,-4969.9067"/>
</g>
<!-- b6_2 -->
<g id="node46" class="node">
<title>b6_2</title>
<ellipse fill="none" stroke="#000000" cx="766.7891" cy="-5161.6097" rx="294.3129" ry="147.1565"/>
<text text-anchor="middle" x="766.7891" y="-5101.6097" font-family="Times,serif" font-size="200.00" fill="#000000">Sync</text>
</g>
<!-- b6&#45;&#45;b6_2 -->
<g id="edge48" class="edge">
<title>b6&#45;&#45;b6_2</title>
<path fill="none" stroke="#000000" d="M1155.8135,-4614.4769C1071.2865,-4733.3576 949.989,-4903.9531 865.3851,-5022.9421"/>
</g>
<!-- b6_3 -->
<g id="node47" class="node">
<title>b6_3</title>
<ellipse fill="none" stroke="#000000" cx="467.0661" cy="-4179.8167" rx="467.1323" ry="147.1565"/>
<text text-anchor="middle" x="467.0661" y="-4119.8167" font-family="Times,serif" font-size="200.00" fill="#000000">Binding</text>
</g>
<!-- b6&#45;&#45;b6_3 -->
<g id="edge49" class="edge">
<title>b6&#45;&#45;b6_3</title>
<path fill="none" stroke="#000000" d="M1023.0474,-4389.1661C942.8798,-4358.9797 851.8041,-4324.6861 766.9055,-4292.7183"/>
</g>
<!-- b6_4 -->
<g id="node48" class="node">
<title>b6_4</title>
<ellipse fill="none" stroke="#000000" cx="1347.6674" cy="-3640.3737" rx="301.9189" ry="147.1565"/>
<text text-anchor="middle" x="1347.6674" y="-3580.3737" font-family="Times,serif" font-size="200.00" fill="#000000">Door</text>
</g>
<!-- b6&#45;&#45;b6_4 -->
<g id="edge50" class="edge">
<title>b6&#45;&#45;b6_4</title>
<path fill="none" stroke="#000000" d="M1270.5949,-4329.1607C1287.6554,-4176.6933 1314.174,-3939.7 1331.2296,-3787.2767"/>
</g>
<!-- b6_5 -->
<g id="node49" class="node">
<title>b6_5</title>
<ellipse fill="none" stroke="#000000" cx="2026.0386" cy="-4142.2636" rx="239.2418" ry="147.1565"/>
<text text-anchor="middle" x="2026.0386" y="-4082.2636" font-family="Times,serif" font-size="200.00" fill="#000000">Log</text>
</g>
<!-- b6&#45;&#45;b6_5 -->
<g id="edge51" class="edge">
<title>b6&#45;&#45;b6_5</title>
<path fill="none" stroke="#000000" d="M1473.273,-4381.3884C1585.7046,-4332.7508 1721.524,-4273.9957 1830.3956,-4226.8982"/>
</g>
<!-- b7_1 -->
<g id="node51" class="node">
<title>b7_1</title>
<ellipse fill="none" stroke="#000000" cx="3254.8286" cy="-3052.9892" rx="341.1399" ry="147.1565"/>
<text text-anchor="middle" x="3254.8286" y="-2992.9892" font-family="Times,serif" font-size="200.00" fill="#000000">VOIP</text>
</g>
<!-- b7&#45;&#45;b7_1 -->
<g id="edge52" class="edge">
<title>b7&#45;&#45;b7_1</title>
<path fill="none" stroke="#000000" d="M2906.3527,-2138.9964C2983.4044,-2341.09 3122.265,-2705.2974 3199.3918,-2907.588"/>
</g>
<!-- b7_2 -->
<g id="node52" class="node">
<title>b7_2</title>
<ellipse fill="none" stroke="#000000" cx="2389.5222" cy="-3029.1221" rx="474.7384" ry="147.1565"/>
<text text-anchor="middle" x="2389.5222" y="-2969.1221" font-family="Times,serif" font-size="200.00" fill="#000000">Monitor</text>
</g>
<!-- b7&#45;&#45;b7_2 -->
<g id="edge53" class="edge">
<title>b7&#45;&#45;b7_2</title>
<path fill="none" stroke="#000000" d="M2786.7608,-2138.1705C2699.0433,-2334.9087 2542.7257,-2685.5077 2454.6017,-2883.1576"/>
</g>
<!-- b7_3 -->
<g id="node53" class="node">
<title>b7_3</title>
<ellipse fill="none" stroke="#000000" cx="1750.9887" cy="-2266.7589" rx="482.7063" ry="147.1565"/>
<text text-anchor="middle" x="1750.9887" y="-2206.7589" font-family="Times,serif" font-size="200.00" fill="#000000">Register</text>
</g>
<!-- b7&#45;&#45;b7_3 -->
<g id="edge54" class="edge">
<title>b7&#45;&#45;b7_3</title>
<path fill="none" stroke="#000000" d="M2565.615,-2064.7479C2431.3692,-2098.0381 2269.5183,-2138.1739 2125.5739,-2173.8693"/>
</g>
<!-- b7_4 -->
<g id="node54" class="node">
<title>b7_4</title>
<ellipse fill="none" stroke="#000000" cx="1859.5804" cy="-1444.8362" rx="294.3129" ry="147.1565"/>
<text text-anchor="middle" x="1859.5804" y="-1384.8362" font-family="Times,serif" font-size="200.00" fill="#000000">Sync</text>
</g>
<!-- b7&#45;&#45;b7_4 -->
<g id="edge55" class="edge">
<title>b7&#45;&#45;b7_4</title>
<path fill="none" stroke="#000000" d="M2645.0201,-1879.851C2472.2569,-1784.1663 2227.1776,-1648.4295 2056.9052,-1554.1243"/>
</g>
<!-- b7_5 -->
<g id="node55" class="node">
<title>b7_5</title>
<ellipse fill="none" stroke="#000000" cx="2483.9603" cy="-921.6737" rx="467.1323" ry="147.1565"/>
<text text-anchor="middle" x="2483.9603" y="-861.6737" font-family="Times,serif" font-size="200.00" fill="#000000">Binding</text>
</g>
<!-- b7&#45;&#45;b7_5 -->
<g id="edge56" class="edge">
<title>b7&#45;&#45;b7_5</title>
<path fill="none" stroke="#000000" d="M2801.2619,-1848.5135C2731.2081,-1643.8861 2604.2855,-1273.1442 2534.0646,-1068.0286"/>
</g>
<!-- b7_6 -->
<g id="node56" class="node">
<title>b7_6</title>
<ellipse fill="none" stroke="#000000" cx="3368.9269" cy="-985.8091" rx="372.7022" ry="147.1565"/>
<text text-anchor="middle" x="3368.9269" y="-925.8091" font-family="Times,serif" font-size="200.00" fill="#000000">Alarm</text>
</g>
<!-- b7&#45;&#45;b7_6 -->
<g id="edge57" class="edge">
<title>b7&#45;&#45;b7_6</title>
<path fill="none" stroke="#000000" d="M2924.7047,-1850.5907C3022.9999,-1659.2363 3196.1036,-1322.2497 3294.6943,-1130.3201"/>
</g>
<!-- b7_7 -->
<g id="node57" class="node">
<title>b7_7</title>
<ellipse fill="none" stroke="#000000" cx="3860.5258" cy="-1478.6602" rx="262.8886" ry="147.1565"/>
<text text-anchor="middle" x="3860.5258" y="-1418.6602" font-family="Times,serif" font-size="200.00" fill="#000000">RSS</text>
</g>
<!-- b7&#45;&#45;b7_7 -->
<g id="edge58" class="edge">
<title>b7&#45;&#45;b7_7</title>
<path fill="none" stroke="#000000" d="M3066.9936,-1883.7346C3244.8037,-1792.9679 3494.6803,-1665.4134 3666.2716,-1577.8211"/>
</g>
<!-- b7_8 -->
<g id="node58" class="node">
<title>b7_8</title>
<ellipse fill="none" stroke="#000000" cx="3979.8607" cy="-2095.7846" rx="301.9189" ry="147.1565"/>
<text text-anchor="middle" x="3979.8607" y="-2035.7846" font-family="Times,serif" font-size="200.00" fill="#000000">Door</text>
</g>
<!-- b7&#45;&#45;b7_8 -->
<g id="edge59" class="edge">
<title>b7&#45;&#45;b7_8</title>
<path fill="none" stroke="#000000" d="M3170.3768,-2022.7674C3331.2373,-2037.2774 3525.0603,-2054.7607 3682.713,-2068.9813"/>
</g>
<!-- b7_9 -->
<g id="node59" class="node">
<title>b7_9</title>
<ellipse fill="none" stroke="#000000" cx="3766.2723" cy="-2662.5045" rx="239.2418" ry="147.1565"/>
<text text-anchor="middle" x="3766.2723" y="-2602.5045" font-family="Times,serif" font-size="200.00" fill="#000000">Log</text>
</g>
<!-- b7&#45;&#45;b7_9 -->
<g id="edge60" class="edge">
<title>b7&#45;&#45;b7_9</title>
<path fill="none" stroke="#000000" d="M3022.3962,-2119.123C3191.8722,-2242.9207 3448.895,-2430.669 3612.1252,-2549.9042"/>
</g>
<!-- b8_1 -->
<g id="node61" class="node">
<title>b8_1</title>
<ellipse fill="none" stroke="#000000" cx="5410.74" cy="-2006.0025" rx="341.1399" ry="147.1565"/>
<text text-anchor="middle" x="5410.74" y="-1946.0025" font-family="Times,serif" font-size="200.00" fill="#000000">VOIP</text>
</g>
<!-- b8&#45;&#45;b8_1 -->
<g id="edge61" class="edge">
<title>b8&#45;&#45;b8_1</title>
<path fill="none" stroke="#000000" d="M5733.5524,-1259.0515C5661.9172,-1424.8071 5545.0054,-1695.3278 5473.2735,-1861.3072"/>
</g>
<!-- b8_2 -->
<g id="node62" class="node">
<title>b8_2</title>
<ellipse fill="none" stroke="#000000" cx="4852.9006" cy="-1345.6134" rx="482.7063" ry="147.1565"/>
<text text-anchor="middle" x="4852.9006" y="-1285.6134" font-family="Times,serif" font-size="200.00" fill="#000000">Register</text>
</g>
<!-- b8&#45;&#45;b8_2 -->
<g id="edge62" class="edge">
<title>b8&#45;&#45;b8_2</title>
<path fill="none" stroke="#000000" d="M5531.3089,-1179.6184C5437.7415,-1202.5127 5330.6097,-1228.7261 5229.5425,-1253.4555"/>
</g>
<!-- b8_3 -->
<g id="node63" class="node">
<title>b8_3</title>
<ellipse fill="none" stroke="#000000" cx="5013.9379" cy="-539.5596" rx="294.3129" ry="147.1565"/>
<text text-anchor="middle" x="5013.9379" y="-479.5596" font-family="Times,serif" font-size="200.00" fill="#000000">Sync</text>
</g>
<!-- b8&#45;&#45;b8_3 -->
<g id="edge63" class="edge">
<title>b8&#45;&#45;b8_3</title>
<path fill="none" stroke="#000000" d="M5630.5092,-993.2275C5497.7372,-895.535 5312.1885,-759.0099 5179.3889,-661.297"/>
</g>
<!-- b8_4 -->
<g id="node64" class="node">
<title>b8_4</title>
<ellipse fill="none" stroke="#000000" cx="5720.0751" cy="-147.0782" rx="467.1323" ry="147.1565"/>
<text text-anchor="middle" x="5720.0751" y="-87.0782" font-family="Times,serif" font-size="200.00" fill="#000000">Binding</text>
</g>
<!-- b8&#45;&#45;b8_4 -->
<g id="edge64" class="edge">
<title>b8&#45;&#45;b8_4</title>
<path fill="none" stroke="#000000" d="M5784.3465,-967.8987C5770.072,-785.5974 5745.8809,-476.6486 5731.5995,-294.2589"/>
</g>
<!-- b8_5 -->
<g id="node65" class="node">
<title>b8_5</title>
<ellipse fill="none" stroke="#000000" cx="6532.1647" cy="-482.2364" rx="372.7022" ry="147.1565"/>
<text text-anchor="middle" x="6532.1647" y="-422.2364" font-family="Times,serif" font-size="200.00" fill="#000000">Alarm</text>
</g>
<!-- b8&#45;&#45;b8_5 -->
<g id="edge65" class="edge">
<title>b8&#45;&#45;b8_5</title>
<path fill="none" stroke="#000000" d="M5943.9733,-987.6227C6069.4333,-879.8249 6248.7426,-725.7586 6376.3444,-616.1204"/>
</g>
<!-- b8_6 -->
<g id="node66" class="node">
<title>b8_6</title>
<ellipse fill="none" stroke="#000000" cx="6766.4526" cy="-1133.356" rx="262.8886" ry="147.1565"/>
<text text-anchor="middle" x="6766.4526" y="-1073.356" font-family="Times,serif" font-size="200.00" fill="#000000">RSS</text>
</g>
<!-- b8&#45;&#45;b8_6 -->
<g id="edge66" class="edge">
<title>b8&#45;&#45;b8_6</title>
<path fill="none" stroke="#000000" d="M6090.0306,-1120.4855C6221.6941,-1122.9907 6375.6952,-1125.9209 6503.4678,-1128.3521"/>
</g>
<!-- b8_7 -->
<g id="node67" class="node">
<title>b8_7</title>
<ellipse fill="none" stroke="#000000" cx="6553.6814" cy="-1721.6003" rx="301.9189" ry="147.1565"/>
<text text-anchor="middle" x="6553.6814" y="-1661.6003" font-family="Times,serif" font-size="200.00" fill="#000000">Door</text>
</g>
<!-- b8&#45;&#45;b8_7 -->
<g id="edge67" class="edge">
<title>b8&#45;&#45;b8_7</title>
<path fill="none" stroke="#000000" d="M5951.959,-1239.8637C6081.9454,-1343.9303 6266.1889,-1491.435 6396.4798,-1595.7453"/>
</g>
<!-- b8_8 -->
<g id="node68" class="node">
<title>b8_8</title>
<ellipse fill="none" stroke="#000000" cx="6049.3169" cy="-2051.9883" rx="239.2418" ry="147.1565"/>
<text text-anchor="middle" x="6049.3169" y="-1991.9883" font-family="Times,serif" font-size="200.00" fill="#000000">Log</text>
</g>
<!-- b8&#45;&#45;b8_8 -->
<g id="edge68" class="edge">
<title>b8&#45;&#45;b8_8</title>
<path fill="none" stroke="#000000" d="M5835.3201,-1260.7957C5882.9405,-1436.8587 5962.5177,-1731.073 6010.0498,-1906.8094"/>
</g>
<!-- b9_1 -->
<g id="node70" class="node">
<title>b9_1</title>
<ellipse fill="none" stroke="#000000" cx="7529.7669" cy="-2806.1605" rx="341.1399" ry="147.1565"/>
<text text-anchor="middle" x="7529.7669" y="-2746.1605" font-family="Times,serif" font-size="200.00" fill="#000000">VOIP</text>
</g>
<!-- b9&#45;&#45;b9_1 -->
<g id="edge69" class="edge">
<title>b9&#45;&#45;b9_1</title>
<path fill="none" stroke="#000000" d="M8261.7932,-2522.4053C8108.8858,-2581.6767 7927.7381,-2651.895 7783.9,-2707.6509"/>
</g>
<!-- b9_2 -->
<g id="node71" class="node">
<title>b9_2</title>
<ellipse fill="none" stroke="#000000" cx="7559.8924" cy="-1923.3348" rx="231.2738" ry="147.1565"/>
<text text-anchor="middle" x="7559.8924" y="-1863.3348" font-family="Times,serif" font-size="200.00" fill="#000000">IPC</text>
</g>
<!-- b9&#45;&#45;b9_2 -->
<g id="edge70" class="edge">
<title>b9&#45;&#45;b9_2</title>
<path fill="none" stroke="#000000" d="M8302.5276,-2271.1572C8126.2168,-2188.5799 7902.0615,-2083.5939 7746.3659,-2010.672"/>
</g>
<!-- b9_3 -->
<g id="node72" class="node">
<title>b9_3</title>
<ellipse fill="none" stroke="#000000" cx="8355.1682" cy="-1298.4229" rx="482.7063" ry="147.1565"/>
<text text-anchor="middle" x="8355.1682" y="-1238.4229" font-family="Times,serif" font-size="200.00" fill="#000000">Register</text>
</g>
<!-- b9&#45;&#45;b9_3 -->
<g id="edge71" class="edge">
<title>b9&#45;&#45;b9_3</title>
<path fill="none" stroke="#000000" d="M8547.8885,-2252.8559C8505.32,-2042.0384 8427.4262,-1656.2751 8384.8647,-1445.493"/>
</g>
<!-- b9_4 -->
<g id="node73" class="node">
<title>b9_4</title>
<ellipse fill="none" stroke="#000000" cx="9376.0093" cy="-1609.1269" rx="294.3129" ry="147.1565"/>
<text text-anchor="middle" x="9376.0093" y="-1549.1269" font-family="Times,serif" font-size="200.00" fill="#000000">Sync</text>
</g>
<!-- b9&#45;&#45;b9_4 -->
<g id="edge72" class="edge">
<title>b9&#45;&#45;b9_4</title>
<path fill="none" stroke="#000000" d="M8721.7219,-2257.2285C8870.0599,-2110.293 9099.2525,-1883.2673 9243.278,-1740.6034"/>
</g>
<!-- b9_5 -->
<g id="node74" class="node">
<title>b9_5</title>
<ellipse fill="none" stroke="#000000" cx="9680.117" cy="-2617.6519" rx="467.1323" ry="147.1565"/>
<text text-anchor="middle" x="9680.117" y="-2557.6519" font-family="Times,serif" font-size="200.00" fill="#000000">Binding</text>
</g>
<!-- b9&#45;&#45;b9_5 -->
<g id="edge73" class="edge">
<title>b9&#45;&#45;b9_5</title>
<path fill="none" stroke="#000000" d="M9030.0116,-2489.3065C9114.254,-2505.9378 9201.6804,-2523.1977 9284.0706,-2539.4634"/>
</g>
<!-- b9_6 -->
<g id="node75" class="node">
<title>b9_6</title>
<ellipse fill="none" stroke="#000000" cx="9008.3563" cy="-3437.9552" rx="301.9189" ry="147.1565"/>
<text text-anchor="middle" x="9008.3563" y="-3377.9552" font-family="Times,serif" font-size="200.00" fill="#000000">Door</text>
</g>
<!-- b9&#45;&#45;b9_6 -->
<g id="edge74" class="edge">
<title>b9&#45;&#45;b9_6</title>
<path fill="none" stroke="#000000" d="M8638.4016,-2546.5035C8720.6722,-2744.7448 8866.5413,-3096.2343 8948.382,-3293.4397"/>
</g>
<!-- b9_7 -->
<g id="node76" class="node">
<title>b9_7</title>
<ellipse fill="none" stroke="#000000" cx="8154.1901" cy="-3440.9752" rx="239.2418" ry="147.1565"/>
<text text-anchor="middle" x="8154.1901" y="-3380.9752" font-family="Times,serif" font-size="200.00" fill="#000000">Log</text>
</g>
<!-- b9&#45;&#45;b9_7 -->
<g id="edge75" class="edge">
<title>b9&#45;&#45;b9_7</title>
<path fill="none" stroke="#000000" d="M8518.0558,-2546.3797C8436.9681,-2745.7409 8292.7287,-3100.3661 8212.3605,-3297.9582"/>
</g>
</g>
</svg>
